<mxfile host="app.diagrams.net" agent="Mozilla/5.0 (Windows NT 10.0; Win64; x64) AppleWebKit/537.36 (KHTML, like Gecko) Chrome/133.0.0.0 Safari/537.36 Edg/133.0.0.0" version="26.0.16">
  <diagram name="第 1 页" id="3LIhNiNdbvlaEGooOemI">
    <mxGraphModel dx="2465" dy="827" grid="1" gridSize="10" guides="1" tooltips="1" connect="1" arrows="1" fold="1" page="1" pageScale="1" pageWidth="827" pageHeight="1169" math="0" shadow="0">
      <root>
        <mxCell id="0" />
        <mxCell id="1" parent="0" />
        <mxCell id="JtS80HCV9RCk1BCbZoH8-6" value="" style="edgeStyle=orthogonalEdgeStyle;rounded=0;orthogonalLoop=1;jettySize=auto;html=1;" parent="1" source="JtS80HCV9RCk1BCbZoH8-1" target="JtS80HCV9RCk1BCbZoH8-5" edge="1">
          <mxGeometry relative="1" as="geometry" />
        </mxCell>
        <mxCell id="JtS80HCV9RCk1BCbZoH8-1" value="&lt;font style=&quot;font-size: 18px;&quot;&gt;&lt;font style=&quot;&quot;&gt;main里面先进行参数的获取，&lt;/font&gt;&lt;span style=&quot;background-color: rgb(255, 255, 255); color: rgb(8, 8, 8);&quot;&gt;mask_generator是sam2d的一个掩码生成对象，最后获取了场景名称，seg_pcd分别对一个个场景进行处理&lt;/span&gt;&lt;/font&gt;" style="rounded=1;whiteSpace=wrap;html=1;" parent="1" vertex="1">
          <mxGeometry x="-190" y="555" width="300" height="150" as="geometry" />
        </mxCell>
        <mxCell id="JtS80HCV9RCk1BCbZoH8-10" value="" style="edgeStyle=orthogonalEdgeStyle;rounded=0;orthogonalLoop=1;jettySize=auto;html=1;" parent="1" source="JtS80HCV9RCk1BCbZoH8-5" target="JtS80HCV9RCk1BCbZoH8-9" edge="1">
          <mxGeometry relative="1" as="geometry" />
        </mxCell>
        <mxCell id="JtS80HCV9RCk1BCbZoH8-19" value="" style="edgeStyle=orthogonalEdgeStyle;rounded=0;orthogonalLoop=1;jettySize=auto;html=1;" parent="1" source="JtS80HCV9RCk1BCbZoH8-5" target="JtS80HCV9RCk1BCbZoH8-18" edge="1">
          <mxGeometry relative="1" as="geometry" />
        </mxCell>
        <mxCell id="JtS80HCV9RCk1BCbZoH8-5" value="&lt;span style=&quot;font-size: 18px; text-wrap-mode: nowrap;&quot;&gt;&lt;font&gt;seg_pcd：&lt;/font&gt;&lt;/span&gt;&lt;div&gt;&lt;span style=&quot;font-size: 18px; text-wrap-mode: nowrap;&quot;&gt;&lt;font&gt;①先获取该场景中的所有color&lt;/font&gt;&lt;/span&gt;&lt;span style=&quot;font-size: 18px; text-wrap-mode: nowrap; background-color: transparent; color: light-dark(rgb(0, 0, 0), rgb(255, 255, 255));&quot;&gt;图，&lt;/span&gt;&lt;/div&gt;&lt;div&gt;&lt;span style=&quot;font-size: 18px; text-wrap-mode: nowrap; background-color: transparent; color: light-dark(rgb(0, 0, 0), rgb(255, 255, 255));&quot;&gt;使用get_pcd获取点云，pcd_list&lt;/span&gt;&lt;div&gt;&lt;span style=&quot;font-size: 18px; text-wrap-mode: nowrap;&quot;&gt;&lt;font&gt;中包含该场景的所有点云&lt;/font&gt;&lt;/span&gt;&lt;/div&gt;&lt;div&gt;&lt;span style=&quot;font-size: 18px; text-wrap-mode: nowrap;&quot;&gt;&lt;font&gt;②&lt;/font&gt;&lt;/span&gt;&lt;font style=&quot;background-color: transparent; color: light-dark(rgb(0, 0, 0), rgb(255, 255, 255));&quot;&gt;&lt;span style=&quot;font-size: 18px; text-wrap-mode: nowrap;&quot;&gt;while循环使用&lt;/span&gt;&lt;span style=&quot;background-color: rgb(255, 255, 255); color: rgb(8, 8, 8);&quot;&gt;&lt;font style=&quot;font-size: 18px;&quot;&gt;cal_2_scenes进行BM的过程.(&lt;/font&gt;&lt;/span&gt;&lt;font style=&quot;font-size: 18px;&quot;&gt;&lt;span style=&quot;background-color: rgb(255, 255, 255); color: rgb(8, 8, 8);&quot;&gt;visualGroup.py对seg_pcd循环调用get_pcd生成的pcd_list进行了可视化，&lt;/span&gt;&lt;/font&gt;&lt;/font&gt;&lt;span style=&quot;background-color: rgb(255, 255, 255); color: rgb(8, 8, 8);&quot;&gt;&lt;font face=&quot;Helvetica&quot; style=&quot;font-size: 18px;&quot;&gt;pthinfo.py对pcd_list中的帧的分组信息进行了统计&lt;/font&gt;&lt;/span&gt;&lt;span style=&quot;background-color: light-dark(rgb(255, 255, 255), rgb(18, 18, 18)); color: light-dark(rgb(8, 8, 8), rgb(230, 230, 230)); font-size: 18px;&quot;&gt;)&lt;/span&gt;&lt;/div&gt;&lt;/div&gt;" style="rounded=1;whiteSpace=wrap;html=1;" parent="1" vertex="1">
          <mxGeometry x="437" y="540" width="390" height="180" as="geometry" />
        </mxCell>
        <mxCell id="JtS80HCV9RCk1BCbZoH8-8" value="&lt;font style=&quot;font-size: 18px;&quot;&gt;seg_pcd是对单独的一个一个场景处理的&lt;/font&gt;" style="text;html=1;align=center;verticalAlign=middle;resizable=0;points=[];autosize=1;strokeColor=none;fillColor=none;" parent="1" vertex="1">
          <mxGeometry x="100" y="585" width="340" height="40" as="geometry" />
        </mxCell>
        <mxCell id="JtS80HCV9RCk1BCbZoH8-9" value="&lt;div&gt;&lt;font&gt;&lt;font style=&quot;font-size: 18px;&quot;&gt;&lt;span style=&quot;background-color: rgb(255, 255, 255); color: rgb(8, 8, 8);&quot;&gt;get_pcd获取了相关文件的路径，并记录了深度值不为0的&lt;b&gt;有效区域&lt;/b&gt;，使用sam2d进行了分割并保存了结果，之后利用pose和相机内外参，将2d坐标转换为3d的世界坐标。返回的是这个帧的信息：坐标，颜色值，分组&lt;/span&gt;&lt;/font&gt;&lt;/font&gt;&lt;/div&gt;&lt;div&gt;&lt;font style=&quot;font-size: 18px;&quot;&gt;&lt;code style=&quot;&quot; data-end=&quot;1158&quot; data-start=&quot;1151&quot;&gt;&lt;font face=&quot;Helvetica&quot;&gt;color&lt;/font&gt;&lt;/code&gt; 变量在这里的含义就是&lt;span style=&quot;font-family: Helvetica;&quot; data-end=&quot;1185&quot; data-start=&quot;1170&quot;&gt;点云中每个点的颜色信息&lt;/span&gt;，它来自原始的彩色图像，并与深度图像中有效的像素点一一对应。这个 &lt;code style=&quot;font-family: Helvetica;&quot; data-end=&quot;1225&quot; data-start=&quot;1218&quot;&gt;color&lt;/code&gt; 信息将用于点云的可视化，确保每个点根据原始图像的颜色进行渲染。&lt;/font&gt;&lt;/div&gt;" style="rounded=1;whiteSpace=wrap;html=1;" parent="1" vertex="1">
          <mxGeometry x="1120" y="555" width="590" height="150" as="geometry" />
        </mxCell>
        <mxCell id="JtS80HCV9RCk1BCbZoH8-11" value="&lt;font style=&quot;font-size: 18px;&quot;&gt;还有一个问题就是 在get_pcd这生成的掩膜（可以在sam2d看到）为什么是黑白的 代表什么含义呢&lt;/font&gt;&lt;div&gt;&lt;font style=&quot;font-size: 18px;&quot;&gt;主要是这个白色部分 是什么含义&lt;/font&gt;&lt;/div&gt;&lt;div&gt;&lt;font size=&quot;3&quot;&gt;jxy说她看看代码&lt;/font&gt;&lt;/div&gt;" style="rounded=1;whiteSpace=wrap;html=1;fillColor=#dae8fc;strokeColor=#6c8ebf;" parent="1" vertex="1">
          <mxGeometry x="540" y="270" width="360" height="130" as="geometry" />
        </mxCell>
        <mxCell id="JtS80HCV9RCk1BCbZoH8-12" value="&lt;span style=&quot;color: rgb(8, 8, 8); font-size: 18px; text-wrap-mode: wrap; background-color: rgb(255, 255, 255);&quot;&gt;get_pcd是对一张一张图像处理的&lt;/span&gt;" style="text;html=1;align=center;verticalAlign=middle;resizable=0;points=[];autosize=1;strokeColor=none;fillColor=none;" parent="1" vertex="1">
          <mxGeometry x="810" y="610" width="290" height="40" as="geometry" />
        </mxCell>
        <mxCell id="JtS80HCV9RCk1BCbZoH8-22" value="" style="edgeStyle=orthogonalEdgeStyle;rounded=0;orthogonalLoop=1;jettySize=auto;html=1;" parent="1" source="JtS80HCV9RCk1BCbZoH8-18" target="JtS80HCV9RCk1BCbZoH8-21" edge="1">
          <mxGeometry relative="1" as="geometry" />
        </mxCell>
        <mxCell id="JtS80HCV9RCk1BCbZoH8-18" value="&lt;font style=&quot;font-size: 18px;&quot; face=&quot;Helvetica&quot;&gt;while循环：&lt;/font&gt;&lt;div&gt;&lt;font size=&quot;3&quot; face=&quot;Helvetica&quot;&gt;对一个场景中的帧进行合并，直到只剩下一帧 就是最终的结果，合并后根据阈值th进行了分组的移除&lt;/font&gt;&lt;/div&gt;&lt;div&gt;&lt;font size=&quot;3&quot; face=&quot;Helvetica&quot;&gt;合并主要是&lt;span style=&quot;background-color: rgb(255, 255, 255); color: rgb(8, 8, 8);&quot;&gt;cal_2_scenes在做&lt;/span&gt;&lt;/font&gt;&lt;/div&gt;" style="rounded=1;whiteSpace=wrap;html=1;" parent="1" vertex="1">
          <mxGeometry x="437" y="780" width="390" height="110" as="geometry" />
        </mxCell>
        <mxCell id="JtS80HCV9RCk1BCbZoH8-20" value="&lt;font style=&quot;font-size: 18px;&quot;&gt;while循环&lt;/font&gt;" style="text;html=1;align=center;verticalAlign=middle;resizable=0;points=[];autosize=1;strokeColor=none;fillColor=none;" parent="1" vertex="1">
          <mxGeometry x="620" y="730" width="100" height="40" as="geometry" />
        </mxCell>
        <mxCell id="JtS80HCV9RCk1BCbZoH8-24" value="" style="edgeStyle=orthogonalEdgeStyle;rounded=0;orthogonalLoop=1;jettySize=auto;html=1;" parent="1" source="JtS80HCV9RCk1BCbZoH8-21" target="JtS80HCV9RCk1BCbZoH8-23" edge="1">
          <mxGeometry relative="1" as="geometry" />
        </mxCell>
        <mxCell id="JtS80HCV9RCk1BCbZoH8-27" value="" style="edgeStyle=orthogonalEdgeStyle;rounded=0;orthogonalLoop=1;jettySize=auto;html=1;" parent="1" source="JtS80HCV9RCk1BCbZoH8-21" target="JtS80HCV9RCk1BCbZoH8-26" edge="1">
          <mxGeometry relative="1" as="geometry" />
        </mxCell>
        <mxCell id="JtS80HCV9RCk1BCbZoH8-21" value="&lt;font style=&quot;font-size: 18px;&quot;&gt;&lt;span style=&quot;color: rgb(8, 8, 8); background-color: rgb(255, 255, 255);&quot;&gt;cal_2_scenes获取两帧点云后，将其转换为open3d的格式。&lt;/span&gt;&lt;/font&gt;&lt;div&gt;&lt;font style=&quot;font-size: 18px;&quot;&gt;&lt;span style=&quot;color: rgb(8, 8, 8); background-color: rgb(255, 255, 255);&quot;&gt;之后是调用①&lt;/span&gt;&lt;span style=&quot;background-color: rgb(255, 255, 255); color: rgb(8, 8, 8);&quot;&gt;get_matching_indices进行两帧之间的匹配；②&lt;/span&gt;&lt;span style=&quot;background-color: rgb(255, 255, 255); color: rgb(8, 8, 8);&quot;&gt;cal_group是在更新组标记。结束之后进行了两个帧的信息合并，合并之后返回作为得到的新帧去while循环&lt;/span&gt;&lt;/font&gt;&lt;/div&gt;" style="rounded=1;whiteSpace=wrap;html=1;" parent="1" vertex="1">
          <mxGeometry x="438" y="970" width="390" height="140" as="geometry" />
        </mxCell>
        <mxCell id="JtS80HCV9RCk1BCbZoH8-23" value="&lt;font style=&quot;font-size: 18px;&quot;&gt;这个是在util.py中实现的，在pointtops下的functions下的query.py中进行了knn_query=KNNQuery.apply的赋值，也即调用knn_query就是调用KNNQuery类的forward方法。最终调用的是knn_query_cuda_kernel函数&lt;/font&gt;" style="rounded=1;whiteSpace=wrap;html=1;" parent="1" vertex="1">
          <mxGeometry x="1020" y="970" width="390" height="140" as="geometry" />
        </mxCell>
        <mxCell id="JtS80HCV9RCk1BCbZoH8-25" value="&lt;span style=&quot;color: rgb(8, 8, 8); font-size: 18px; text-wrap-mode: wrap; background-color: rgb(255, 255, 255);&quot;&gt;cal_2_scenes&lt;/span&gt;" style="text;html=1;align=center;verticalAlign=middle;resizable=0;points=[];autosize=1;strokeColor=none;fillColor=none;" parent="1" vertex="1">
          <mxGeometry x="630" y="913" width="130" height="40" as="geometry" />
        </mxCell>
        <mxCell id="JtS80HCV9RCk1BCbZoH8-26" value="&lt;font style=&quot;font-size: 18px;&quot;&gt;cal_group中根据得到的匹配关系进行查询，对于每对匹配关系，查看分别是哪个组，得到group_overlap{97: {20: 4}, 114: {76: 40}, 98: {64: 3}, 113: {75: 31}}这样的结果，然后遍历每一个键去找最大的对应数，若符合条件，则将20更新为97，这一部分是仅针对于匹配的点（这里的一些记录在qq有截图）&lt;/font&gt;" style="rounded=1;whiteSpace=wrap;html=1;" parent="1" vertex="1">
          <mxGeometry x="438" y="1169" width="390" height="151" as="geometry" />
        </mxCell>
        <mxCell id="JtS80HCV9RCk1BCbZoH8-28" value="&lt;span style=&quot;color: rgb(8, 8, 8); font-size: 18px; text-wrap-mode: wrap; background-color: rgb(255, 255, 255);&quot;&gt;cal_group&lt;/span&gt;" style="text;html=1;align=center;verticalAlign=middle;resizable=0;points=[];autosize=1;strokeColor=none;fillColor=none;" parent="1" vertex="1">
          <mxGeometry x="630" y="1120" width="100" height="40" as="geometry" />
        </mxCell>
        <mxCell id="JtS80HCV9RCk1BCbZoH8-29" value="&lt;span style=&quot;color: rgb(8, 8, 8); font-size: 18px; text-wrap-mode: wrap; background-color: rgb(255, 255, 255);&quot;&gt;get_matching_indices&lt;/span&gt;" style="text;html=1;align=center;verticalAlign=middle;resizable=0;points=[];autosize=1;strokeColor=none;fillColor=none;" parent="1" vertex="1">
          <mxGeometry x="820" y="1003" width="200" height="40" as="geometry" />
        </mxCell>
        <mxCell id="kQHvF9xDawDUJMjNZoch-1" value="&lt;font style=&quot;font-size: 18px;&quot;&gt;Q：为什么前后帧的分类结果不一样&lt;/font&gt;&lt;div&gt;&lt;font size=&quot;3&quot;&gt;A：①验证了未合并之前的分类结果，前后帧中对于同一个物体分类是不一样的，需要靠后面的BM来进行统一&lt;/font&gt;&lt;/div&gt;&lt;div&gt;&lt;font size=&quot;3&quot;&gt;②：对匹配过程进行了调试，它的匹配结果非常少 只有1-2百个匹配关系，但是原数据集的匹配关系8000多个点可以由七千多对&lt;/font&gt;&lt;/div&gt;&lt;div&gt;&lt;font size=&quot;3&quot;&gt;③：可以确定原因是没匹配到多少关系，造成的原因主要是稠密度，深入阅读了匹配关系的代码，其实就是根据世界坐标进行匹配，找到一个最近的点检查距离，若小于一定的阈值则作为匹配关系。&amp;nbsp; 稠密 动态物体&amp;nbsp; &amp;nbsp; （当前的匹配就是遍历另一个帧中一个批次的点，维护了一个大根堆，找当前k小的点进行匹配，这里k=1）&lt;/font&gt;&lt;/div&gt;" style="rounded=1;whiteSpace=wrap;html=1;fillColor=#f8cecc;strokeColor=#b85450;" parent="1" vertex="1">
          <mxGeometry x="940" y="1130" width="480" height="230" as="geometry" />
        </mxCell>
        <mxCell id="kQHvF9xDawDUJMjNZoch-3" value="&lt;font style=&quot;font-size: 18px;&quot;&gt;这里为什么维护一个最大堆 是因为我们要找最小的nsample个距离 维护大根堆就可以知道当前要加进来的是不是比最大的大 比最大的大就把堆顶去掉&amp;nbsp; 把新的数字加进来 再调整为大根堆&amp;nbsp; 如果是小根堆的话 根本不知道要不要加进去&lt;/font&gt;" style="rounded=1;whiteSpace=wrap;html=1;fillColor=#d5e8d4;strokeColor=#82b366;" parent="1" vertex="1">
          <mxGeometry x="1440" y="1169" width="430" height="130" as="geometry" />
        </mxCell>
        <mxCell id="kQHvF9xDawDUJMjNZoch-5" value="&lt;font style=&quot;font-size: 18px;&quot;&gt;他这里的匹配就是根据点的坐标去进行距离的计算 算到小于规定的阈值就是一对匹配对&lt;/font&gt;" style="rounded=1;whiteSpace=wrap;html=1;fillColor=#f8cecc;strokeColor=#b85450;" parent="1" vertex="1">
          <mxGeometry x="940" y="1370" width="480" height="80" as="geometry" />
        </mxCell>
        <mxCell id="5p2hWQ7ByvtlCYFSnNdF-2" value="&lt;font style=&quot;font-size: 18px;&quot;&gt;①深度值是根据点云得来的，如果点在相机后方、位于图像外，或者深度值小于 min_dist，则该点的深度值为0，代表该像素没有有效的深度信息。&lt;/font&gt;&lt;div&gt;&lt;span style=&quot;font-size: 18px;&quot;&gt;②注释掉一次合并 只单项合并出来的效果没有双向的好&lt;/span&gt;&lt;/div&gt;" style="rounded=1;whiteSpace=wrap;html=1;fillColor=#dae8fc;strokeColor=#6c8ebf;" parent="1" vertex="1">
          <mxGeometry x="1460" y="1350" width="710" height="110" as="geometry" />
        </mxCell>
        <mxCell id="YbVBPKZVBPdx36x0C7TW-1" value="&lt;span style=&quot;font-size: 18px;&quot;&gt;为什么要进行双向的合并：在匹配关系中，因为两帧区域中的点可能不同，所以得到的匹配关系是不一样的。因此首先用第一帧来更新了第二帧，更新过程中可能很多id都会对应到同一个，这样的话，就被一个切割的零碎的物体恢复成一个了。然后以这个更新后的完整的第二帧，再去更新第一帧中的分组信息，主要还是匹配关系不同所以才需要进行双向的合并。&lt;/span&gt;&lt;div&gt;&lt;span style=&quot;font-size: 18px;&quot;&gt;更新后两帧中是一个物体的分组id也是相同的，被过分割的物体也会恢复正常。&lt;/span&gt;&lt;/div&gt;" style="rounded=1;whiteSpace=wrap;html=1;fillColor=#f8cecc;strokeColor=#b85450;" parent="1" vertex="1">
          <mxGeometry x="940" y="1460" width="490" height="210" as="geometry" />
        </mxCell>
        <mxCell id="9FLsO_nRd82xoy3qNYGG-1" value="&lt;font style=&quot;font-size: 18px;&quot;&gt;BM过程：①遍历pcd0为pcd1的每个点找匹配点，得到match_inds后进而得到group_overlap类似图里面这样的结果。根据pcd0去修改pcd1的分组id，&lt;/font&gt;&lt;div&gt;&lt;span style=&quot;font-size: 18px;&quot;&gt;②反向的时候是遍历pcd1为pcd0中的每个点找到匹配的点，根据前面更新后的pcd1去更新pcd0的值&lt;/span&gt;&lt;/div&gt;&lt;div&gt;&lt;span style=&quot;font-size: 18px;&quot;&gt;③反向更新后对于一个物体前后帧就是一致的&amp;nbsp;&lt;/span&gt;&lt;/div&gt;&lt;div&gt;&lt;span style=&quot;font-size: 18px;&quot;&gt;Q：至于为什么要双向主要还是因为得到的匹配关系是很不一样的&amp;nbsp; 要利用这个关系去修正分组&lt;br&gt;&lt;/span&gt;&lt;div&gt;&lt;br&gt;&lt;/div&gt;&lt;/div&gt;" style="rounded=1;whiteSpace=wrap;html=1;fillColor=#f8cecc;strokeColor=#b85450;" parent="1" vertex="1">
          <mxGeometry x="1500" y="1480" width="490" height="210" as="geometry" />
        </mxCell>
        <mxCell id="9FLsO_nRd82xoy3qNYGG-2" value="&lt;font style=&quot;font-size: 18px;&quot;&gt;一个是匹配关系少（稠密化）&lt;/font&gt;&lt;div&gt;&lt;font size=&quot;3&quot;&gt;一个是动态物体不在匹配关系中（动态物体）&lt;/font&gt;&lt;/div&gt;&lt;div&gt;&lt;br&gt;&lt;/div&gt;" style="whiteSpace=wrap;html=1;" parent="1" vertex="1">
          <mxGeometry x="530" y="1390" width="330" height="120" as="geometry" />
        </mxCell>
        <mxCell id="9FLsO_nRd82xoy3qNYGG-3" value="&lt;font style=&quot;font-size: 18px;&quot;&gt;先讲总体过程&lt;/font&gt;&lt;div&gt;&lt;font size=&quot;3&quot;&gt;讲中间结果的观察&lt;/font&gt;&lt;/div&gt;&lt;div&gt;&lt;font size=&quot;3&quot;&gt;讲BM的两个流程&lt;/font&gt;&lt;/div&gt;&lt;div&gt;&lt;font size=&quot;3&quot;&gt;讲数据的问题&lt;/font&gt;&lt;/div&gt;&lt;div&gt;&lt;font size=&quot;3&quot;&gt;（选择性讲）&lt;/font&gt;&lt;/div&gt;&lt;div&gt;&lt;font size=&quot;3&quot;&gt;BM具体的流程&lt;/font&gt;&lt;/div&gt;&lt;div&gt;&lt;font size=&quot;3&quot;&gt;为什么要双向&lt;/font&gt;&lt;/div&gt;" style="rounded=1;whiteSpace=wrap;html=1;" parent="1" vertex="1">
          <mxGeometry x="560" y="1560" width="300" height="180" as="geometry" />
        </mxCell>
        <mxCell id="9FLsO_nRd82xoy3qNYGG-4" value="" style="endArrow=none;html=1;rounded=0;" parent="1" edge="1">
          <mxGeometry width="50" height="50" relative="1" as="geometry">
            <mxPoint x="-283.3333740234375" y="1800" as="sourcePoint" />
            <mxPoint x="2063.333251953125" y="1800" as="targetPoint" />
          </mxGeometry>
        </mxCell>
        <mxCell id="9FLsO_nRd82xoy3qNYGG-5" value="&lt;span style=&quot;font-size: 18px;&quot;&gt;Q1：这样进行稠密化之后，并不能提供更多的有效信息，除非稠密化之后再投回图像再进行一次分割&lt;/span&gt;&lt;div&gt;&lt;span style=&quot;font-size: 18px;&quot;&gt;验证了一下，稠密化抽帧之后再投进去没有任何的作用&lt;/span&gt;&lt;/div&gt;&lt;div&gt;&lt;span style=&quot;font-size: 18px;&quot;&gt;Q2：对于使用3dbox真值去去掉动态物体来说 这里的点云是投出来的，不能确定坐标是否一致&lt;/span&gt;&lt;/div&gt;&lt;div&gt;&lt;span style=&quot;font-size: 18px;&quot;&gt;①目前完成了稠密&amp;nbsp; 发现没用&lt;/span&gt;&lt;/div&gt;&lt;div&gt;&lt;span style=&quot;font-size: 18px;&quot;&gt;接下来就是先用gt去掉动态的物体 先做一个效果&lt;/span&gt;&lt;/div&gt;&lt;div&gt;&lt;span style=&quot;font-size: 18px;&quot;&gt;②动态物体是能去掉的 但是对于总体效果来说看着不大 不过也是必须的步骤 效果还是要先稠密&amp;nbsp;&lt;/span&gt;&lt;/div&gt;&lt;div&gt;&lt;span style=&quot;font-size: 18px;&quot;&gt;再调研一下怎么样可以使转换的时候点云更稠密一些&lt;/span&gt;&lt;/div&gt;" style="rounded=1;whiteSpace=wrap;html=1;fillColor=#f8cecc;strokeColor=#b85450;" parent="1" vertex="1">
          <mxGeometry x="-350" y="1820" width="810" height="180" as="geometry" />
        </mxCell>
        <mxCell id="l8Teo_1bZM88xix4W6jo-3" value="&lt;span style=&quot;font-size: 18px;&quot;&gt;对于路面来说的问题主要有：路面是环形的，且越远越稀疏，所以第二帧和第一帧重叠的部分是第一帧稀疏的地方和第二帧稠密的地方 所以坐标上对应上的点是很少的&lt;/span&gt;" style="rounded=1;whiteSpace=wrap;html=1;fillColor=#f8cecc;strokeColor=#b85450;" parent="1" vertex="1">
          <mxGeometry x="-350" y="2030" width="690" height="90" as="geometry" />
        </mxCell>
        <mxCell id="uKXoaIHHPF0KLf4nFBQf-1" value="&lt;span style=&quot;font-size: 18px;&quot;&gt;对于指标来说，首先使用计算真是类别和预测id的IOU&amp;nbsp; &amp;nbsp;之后以这个为权重 用匈牙利算法求解最优匹配来得到语义标签&lt;/span&gt;&lt;div&gt;&lt;span style=&quot;font-size: 18px;&quot;&gt;对于这个重叠点数 可能根据点的坐标来进行计算&lt;/span&gt;&lt;/div&gt;&lt;div&gt;&lt;span style=&quot;font-size: 18px;&quot;&gt;（先提取每个类 拿出坐标之后进行匹配计算 再分别计算独自的分类有多少点）&lt;/span&gt;&lt;/div&gt;&lt;div&gt;&lt;span style=&quot;font-size: 18px;&quot;&gt;这个指标参考的是：&lt;/span&gt;&lt;span style=&quot;background-color: transparent; font-size: 18px;&quot;&gt;香港理工提出GrowSP：3D场景的无监督语义分割&lt;/span&gt;&lt;/div&gt;&lt;div&gt;&lt;span style=&quot;background-color: transparent; font-size: 18px;&quot;&gt;但具体的他只说用匈牙利算法&amp;nbsp; 没有说边的权重是什么&lt;/span&gt;&lt;/div&gt;" style="rounded=1;whiteSpace=wrap;html=1;fillColor=#d5e8d4;strokeColor=#82b366;" parent="1" vertex="1">
          <mxGeometry x="-350" y="2150" width="730" height="158" as="geometry" />
        </mxCell>
        <mxCell id="uKXoaIHHPF0KLf4nFBQf-2" value="" style="shape=image;verticalLabelPosition=bottom;labelBackgroundColor=default;verticalAlign=top;aspect=fixed;imageAspect=0;image=data:image/png,iVBORw0KGgoAAAANSUhEUgAAA/wAAACQCAIAAAA6HfcQAAAgAElEQVR4Ae19/3NURdb+5y+5mR0sAhWoWGBqtILAEmBLslgbslsRWNbIt/hSOikxGxcCumqJu+zr4oTFRVaDZlcWkBC+jBQYYCMKEhEMokRJ3ugQCAnJhteZmvvzhw/PZ586dt97M5OEgPHMD8m5fft2n366b/fTp0/3/T+u/hQBRUARUAQUAUVAEVAEFAFFYEwj8H/GdOm0cIqAIqAIKAKKgCKgCCgCioAi4Crp10agCCgCioAioAgoAoqAIqAIjHEElPSP8QrW4ikCioAioAgoAoqAIqAIKAJK+rUNKAKKgCKgCCgCioAioAgoAmMcASX9Y7yCtXiKgCKgCCgCioAioAgoAoqAkn5tA4qAIqAIKAKKgCKgCCgCisAYR0BJ/xivYC2eIqAIKAKKgCKgCCgCisAPAoHUrd9tUvW2kP4rV66UlJRUVFT09/ffJr2RbCwWcxxn3bp16XR6BDNKJpPHjh1rbGxsa2sbwWSDk0qn02+99VZTU1NWZenp6XnxxRerqqo2b95848aN4Czuhrv79+93HGfSpEmLFi26du3a3aDSD12HZDLZ1dV19uzZEcEzHo87t36lpaV9fX1DA+e777579dVXZ8yYkZ+fHwqFjhw5Mmg6AwMDu3bt6uzsHDTmECL09vbu3Llz7ty5Dz/8cG9vb+YpdHZ27t69O5lM8pGjR49Gbv2M/q23t/cf//jHiPR4fllQh2EKnZ2dBQUF4XD4wQcfPHny5DBTC3i8r6+vtLTUcZxIJJJIJDxjrl+/PhKJzJ49u7W11TOCBt5BBLZs2fL73/9+YGDAdd10Ot3Y2Hjy5MlUKnUHVbodWaPTi8ViQ048mUz+85//ZPeVSqX++te/FhUVXbp0KcM0+/v7o9Ho/Pnzu7u7B32ktbV19uzZ69evHzTmECJEo9GAFxYJErFkMnngwAG/fu+bb75ZsGDBn/70JzQhqUwqlXrqqafKysrOnj0rw39w8oi/Drt37544ceJwWmMwhreF9CcSiUgkYpOGnp6exJB+3d3dNhVua2ubeus34tR8586d4D07d+4Mho/DM3iA/FtRUbF582YZ4ilztNu3b18oFHIc55VXXkkmkxgLPR+pq6ujVoDacRyinU6nu7u7AfOVK1fYImW4rAQZh8kOX+jr60MuPT09MjXM0xzHWbJkydBmKbIgUnkZPgoFlIWC3N7evn79+qqqqsOHDxt3b9y4AZU8W7IR2e8ylUqdOHHijTfeqKqqqqioKCwsnDp1qvOfX05OztGjR/2eleGpVKq5ubnR5/fCCy8gyRkzZuzcudMnVuM333wj07Tlbdu2/Uc1Z82aNfb7Kx/54IMPpk2b5jhOZWUlGDYbNhMJEHJzc8+cOSMTdF03lUqRrJ86dWrcuHFIYc+ePYzZ3d3d0NDw1Vdf8TXhLdd1e3t7y8rKHMcpKyvjcO45KWpvb583b57jOCtWrJCTijNnzuTm5gZo7jm4emYhFctQxmwwkUjI18R1XWo1efLkCxcuZJiaHe306dONjY0nTpwAehcuXGhsbGxubiaYmZD+aDTqOI5nDSLHGzdubN68uWpIP8MUcu3atYMHDzY2Nsbj8d7eXl4ePHjw2rVrsgMZWtdkQzTMEKo05Om367roigN6HrSTrq4uvi9QGyNsUVHRlStXXNc9ffp0bm7uE0888e233yZu/fgIe3uEG+2NzSDgRZC3OJZBjYBB1nN89AwM7htJYT3rK5VK/fvf//a8xcCmpqZQKPSzn/2MlpeNGzc6jpMVdcPgKDsopm8IeIWj0SjC2U6Af7Z/jdaeFenft29fOByeOXOmZ0+yZ88ex3Eef/xx9gksyDfffHP//fdPmTLl66+/ZqAhDLNcaIfffPON3yjG8IMHD3799dewn9o9jZyWpFKpK1eutLS0vPHGG+Xl5ZMmTUJzDSBsaJAlJSV4j4wy2pfnz5/Pz8+fOnXqiDNb5DUI6R8YGDh8+DChkQI6Sltj13X9SD/6d/l6ZygbvYDruslksrKyMsPHZbSA0QVlQU+HRwbFncOzzAJyaWnphg0b7HAjBPpcv34dJjHcfeKJJx577DEjJi9vdg11dXWRSKSkpOTcuXORSESSftnDSkohw5kUhQkTJlRUVJw+fTqYnHlWtx3Y0dExffp0x3Hy8vJaWlpkhNWrVyPTmpoaGe667uHDh+33jSFk0rIgd6qAhuYDAwO1tbXhcBhFszt60sdQKLRv3z7j8cwvg9+g1157jXMq1qwU8B5JAOXdrOR4PB5cZY899lhOTg7SzM/Pr6ysZFVSqKmpaW9vd123paUlLy8Pkbds2cI+JEOV5EudTqc///zz6urq8ePHb9u2DdgODAw8+uijSO3nP/85efmHH36IWguFQm+99ZZRESdPnszPz8dTEydOfO+999LpNF95dkqnTp1itNzc3OPHjzMd0mu/gqABk32CMdtZMMHMhWQyWVVVhXxra2vle3348GGEz5o16+rVqzLN9vb2mpoaVpAhSA7d1dU1c+ZMx3HwIg8MDCxatMhxnFWrVjEvtjS+pyyaHyAMZ50yEd7KXGAdoYy7du3Cs4sWLRoYGDh69CiaKJsELS9lZWVsJBKfUZZZdrtLyVwT9AkGFPJxtFICjls3WVp1dXVOTk5DQ4OcAEvw+YjR7bC6kRRKMX/+/La2tsRgvxUrVhiqZt5mpG6GjP5KllrKyMIT5HQ6XVtbO2HChL1798pHpHzlypWioiJihVuDGiXtdw195pQpU5566in56uG9O336NEmXQfrZToxSZ3hpgJMJ6UfPCcSOHj2al5dXUFBgkNRUKvX444/n5OR4rvQGzAeI7TDLhXaYSfvJzc2Nx+OgUjZowOejjz665557jLv5+fnRaLSrqwtDc35+vj3nLCgoCIVCxkvBPl+Sash79+5FX7p8+XL7LkIGNboRQ1sYhPQH2Nv4wtuJ+pH++vp62ZSl/MADDziOs3DhQhlIWQ42WGesra11HGfGjBmMk6FAnmGrLbu26upqmDyDe/+A9pQV6Xdd99q1a6hpcOX777/fcZxQKFRQUIBmRLNu7NYPi+affvrpiJB+NuWHH34YPMwTn0wCSXAdxzGWSm7cuLFkyRLktX37diM1Y+SgShDYI8uOQL5IMtx4Vl4Ov4BS7e7u7tra2okTJ8osqKqMiek7KldaDmScQWVPiPLz82fMmBGNRvfs2eMZgbphNO3v76+oqLD7JoRMmjQJ8WXbsyPDchacHfP1E9iHpNPpV199FdHy8vLOnj1Lv7WqqirOH0Kh0PLly+03Xb7Uso2B2wHVI0eOgOHJQei1115DpuFw+MMPP7TxpwnfcZxwOHzy5Em+8gCzqamJI4Ft7iLpN8Dku4wGzGhI08jC1mrQEDAVFG3lypWGBXf79u24Za+2URNEMP5KNoYx23EcjIhcS5HvNV9JvqcsmpGyfcm2wUTsOIOGSIVd162pqXEchw3gpZdeQgqcHKbT6XXr1iGwurraNk8OivzIRmDZPbuUDPPCS2pAIZ9FpRNw3ML8B40Hr2coFPrzn/8MzvH2229PnTp15syZWAEz7DUvvviiXOBFKfxm/sbr/MADDwSoSrXBMWjqRngsFjNKwfgUAiiN3Zzi8fiWLVs8rVdMkLNrrlLyFpC3X0BEAOwTJkywe1eGgC8CkGg0ytLhWRaf7cSPQRkgG5fGeJQJ6YcCbJafffbZBx98wIJDaG1tzcvL44xa3sV84GanWl9fn7B+bDwoV05OzmOPPUadV61aNW7cONmcMEDIEEQ22qHruvF4HBhCf2O2IzWEjBpEtEQisWzZsmeeeWbbtm0zZswoKSmR62+ydox0UAr2gbgLBewml2HIoJobOsjLQUi/n6V/wYIFbH8yOch+pN+OyRDMkzIsCfqj6dOnd3R0MIXhC3x7QfRJXquqqoxRU+aVTqe/++47hKTT6ZdffhnVtnr1ajlmwI/WcZyAJfX+/v4nnngiLy/v5MmTAER2f+ytYrd+t4n0O44zTGBJBB999FF68mHxC10Y8Jk0aRK7tkgkcvToUT7o2e7Zv7CDM3yFZbhnCgwcZgFZ+1u3bmWaUqCqjAmhrq4O0SQyRpzgS3hQxOPxlpaW++67z0DAdd1gDGVz4rp/4vu/HTt2QElPyxwX9KFncHZIJ+Cv7EO6u7uLi4sR+emnn5bvDpmibZn2hIueRXl5efQU7+3t/fnPf470MRmQ04OAlK9du7Zs2bJQKPTOO+/Ylv6bPUN1dbXjOMuWLePKPrViz24gz3f5NpF+5pufn3/+/HnoQzeJCRMmAIdwOCzfwfXr1/NBz1pjKWjXR2+WTqfXrFnjOM748eOxsnf27NmqqqrKykqsgYwbN27VqlWbN28+deoUB++qqqrZs2cjo7y8vGg0Km9xIhfsjSYtYVu2bJk8ebLU/Omnn6brQk9PD1ywwEJY+wUFBdLxGlZbGFyamppYlXdEYJ/m16VkohVeUtad/QgqXb6MsFIXFhbCAAQXDq4XcQ6Q4aIlSmFzMlndlG836ZfWBGa6cOFCx3EeeughhlRVVT399NPV1dWhUCgvLy/AOwizAs8xpbe3d8GCBY7jEDoJPmCXNQu6dfr0aUYDdKg7SSvxrE36M2RQvb29p06d4oocs4MgST/7XvlaBchQIGBFGhEwH/BLxyiXbJlcBJbtGWjIEKNEvBwO6WcislIYKGuHgRAQ35P0r1ixIvGf36VLl86cOXPp0qX/BPz//52dnefOnWttbaVbXSKRYLdm5JXJ5SCk3zMJlGHKlCmfffaZp8kQdiwatzLZbpI56cdaUjgcPnDgwJUrVwyAAi7ltMwuFxl/YWEhV6nopvLcc8/58f4TJ05MmTLl0KFDruvCsc+TN9ORYN68eZzI2moMDAxgJkPS39raWlNT8+KLL164cAFG/Vuc///tYI5EIkOz9Mv2193d/c477xgLWwsXLgyGy9YcIXSOGjdu3KlTpxgtoBdwbv3i8TgZ5IIFCziWo9OUzpFofnhKFsQvfGQLyBIZDJuuLFJVGdl1XfKJnJyc/fv3G3ezujRYI58lhrI3IY83ukVGBpiZ/DX6X6Ygs0sM9jt37hxmLEZqTU1N995777vvvgvGT/PhQw89BN0ikcjTTz8tB+aqqiqyQ4IgR5SNGzcynNqWlJR0dnZeuHCBHNHYdQD3ORLiqVOnhsNhrLnZKyFTp04NhUJTp05lfG7UwWgkve+gjFF9RjQOtEZ9sSDBQjKZXLlyJRCTxWeyuGX/jUaj1CQvL++tt97Ca8htHtSHdn2Yuy5dulRQUOA4DudOnnnxcdd1u7u7n3vuOexigibhcLiiouLIkSNDGM+uX79eU1MjU5s2bdrx48clrTl37hxW5GDX//rrr6dMmeI4HhtOODmXCgdjfpvusk+T1DDbvNDsA8qCSufL2NHRUVRUREfEDz74AK53bOGw3XB8DyDEUBWl8DQiJKyf7d7jWV7oTHaIOJlY+j1TQ3OVIKdSKXgTBDN+2B9DoZAf24bjIk0GMnc4eEhXeHQLslCY8cLrT9JKo/hsJ1Dj0KFDs2fPNuz3zPpm7wo7RXV1Ne2VvOu6riT9tBSwc4OAyby9TIHGEI1GDfN8VVUVunFoiA0P9roEZl9EAOViy4SS6LdlewYaMkQWR8p3G+lnSbEKwYVTqTNaRSalk08FyIOT/s7Ozj/84Q/SwbGrq6uwsHDevHk3B07piW6PIgiRBfNTJUPS//777+fm5qI/Yiful68RLl9pQw2Y2D1X8ehtXFlZaW9R7+zshGNrKBR67rnn4MjO7hKnGOElsbkCwnkGiDH5Julvbm7Ozc2V/D526zdSpB9QEAGAxhVwA6hBL/EyO45jrGlmRfplg+GDrD52cIad2y98ZAsoEcBomp+f//rrrzc0NLC9UVUZGTKN0NLzxI7mGcJ9mYlEgrz5vvvuO3fuXOLWr7u7m7xWYkgGZnQcjEzNBxWM/pcpILumpqbJkye/8sorPIAC3bGxU5OU10hNbr015lQBihmJuK5LI67jODNnzuzq6gKeX331VV1dHS9ZF3ZrZ7kC8g24RZVYfIPxsPpuh6WfjNzYksRm4Ke5JP1yOs0H2X7gJ0OHfiJZWVkJns1HZF7FxcUbN27E7jcZbsvz5s3z9AO234uBgYHXX39d+teFw+Ha2lquMfIROPTTro+NDYZtApG5XcFuGExtdAT2aX5ditzp6GemQWNm3dmao5Wi0aZSKWyWg3H6X//61/79+5988slx48aBosG5Qsp+fJcZsRR2RXuG2KrKkRTjJkinsVSFJSzDrzqTDZRorgS5v78fIEQiET/qLHcieRryWXxODLZu3SoXMMnzPEFgIN/EDEl/KpXatGkTulzYIqkJBOhjb7fDMnJjY+OCBQs455fLDjIdtJmXXnpJBlKWqjIQ7TAej8NGwDeREQgIBy+0HHaniImsZSOxQ2SaruvSiAMaln/rh1ME0Zz8DNPUWSYIraQCmCmFw+FYLEZ7JYWdO3fOmDGD9ShL8eSTT/LYFdjmduzYkfj+D4OFHEGMjfJIsOfWT+rpJw9C+ulr++qrr9JqArYtN2wZqQ9hapIh6e/o6Jg9e3ZDQwPX2eWS3IoVKx5//HHDEGhMMQ1VXdel2y78auwIJ0+ehKlj7ty5Fy9elBFSqdTu3buNAzroDkRywxfYFtB0uM7AqcUok37sZ6BZ3XGc1atXy5JmIl+9enXWrFkoo3EEAQ5uQmeEQ04SiURbW9v8+fMRX1r6+c7jXUIE9shyCJEvkl84NediKxIcQgGZFIS2tjYe/CJZDlU14ruuS/uiJ9uw48sQdG1Q3vOv3EYiMaRuRj9FaisjyxwpsyUb/a9MQfrnhEKh3/3ud4lEgjrLB43UbvznaKPErR+PGWHinoVloEyZCtPj3HEcemzzLizN9CayF98yzJo6GAJVYvGNCLxEA2Y0VJBffUn9A2QycuPQDODc3NwMiszpIj0SMyT9NtHksWwG72Rr53vK6QEQGD9+/JYtW65evbp3795HHnmEsGT4dpw8eRKHPvHBpUuX8pwlAyLjEBtceg6fruvS3d/A0Ejzdl+yT7O7lP7+/j//+c/jx49n2R3HKS4u/uijjwyt0JiNd1/GQfNjo21qalq7dm0ymYQT14MPPnj69OlIJAJyj5fXlmWChozzl4yNeUYcXtbX19sxkSnXFiKRiKel2SD9xgbKgFNcsJa1atWqxsbGHTt2wJA3efLkrVu3krpBoGEeHgeO41RXV/t5AaBQ6XR627ZtWIaKRqPXr19nYQ2V3nrrrby8PLnQ3djYePjwYcxgJZNGlbHfZjtBvaTT6Xfeeefm4QShUGjbtm1kbpyo0C5JTfyMLMxCxuQJYH53pap8EO0wHo+jw5GLkIyDro/JolxsmYiGspeVldEIi5CAFh6LxeBhuHDhQixBYBvAwoUL4YLIHKkJBOrshw8tj7ROyvdRyuwDZSnKy8szsZvLdJijVBU+JgErTjLyIKSfXDA3N5dzPphM5IYtmaKn05URwb7MkPTjJD48jvrYtWsXLuGCb++lY23ZBol0Ov3ee+9hCJRzerjW8WVzXffs2bNwgDHMSBjt5NgTiURaWlpu7vno6ur6n//5H8Ntxqg8rvu/+eabvIUllNEn/a7r8nQLx3GMfSp2ldkhdGHyO4eLdOS1115zXRdLRjQDo0Idx5FvIN8lDnvs4IzW7xcu9fQroN/eFaPHD9gyT6IW4N5jGKFZIqlhgIyuje3EFoZM+g2DGYwf8i83nhr9L41Dp0+fTiaTu3btwmAM3X76059iOdVxnIKCArIxoo3DKCR0fCOIA+/SdQS3iIahEu7KGYg09jNZHsvrNytgTJwccPr06blz59qY5+fnb9iwgUWTT3FotJ9iyIiTfnquO47DvlFqxSNrOGryQK1YLEZU5RDFKggYVmUWlDn1Ymow8k2YMGH58uV79+7lsI1H+vv79+7dO3/+/Mcee8w21TNZCuwxHMeZO3fuiRMnJL9htCEIROn+++8PeOuHkHJWj7BPM/qKzs5O7E/AaRZPPfVUeXk5z6EyXO2BUkDdodLt9wh732OxGDg3bJCwO0q5oaHBPuLv9OnTfp4hsmMZVMb51FBAFgE6G7CsXr1aDj1Aj22PzZhv3xCEWCyWTqd37NgBtGngC65W+cjEiRPpwWg8hWLK4U9GkEwaxWdMthNJcg4dOgRzJJ2T6a7suTTBc1dXrFhBi0AikTAOzIU7JebzVCCRSPz973/nAq9UlUVAO9y0adOUKVMefPBBzz4TdcRkUS6jZRplZzcrmwczhRCLxdAMbPceZMEc7QfpckN3U/ggcY8KtgtHo9Hx48e///77CesH4ybbIbJAKUbK0s+zGcCsjFIYl4OTfh7QW1xcDCNcZWUlD7uAM6Vx2p39ipIcGCyKl7Axv/DCCwyxBU6yMQyvWrWKaiAEs9vc3FxjVQujmnwfXNe9fv06CWVZWdnly5cJDfQ3Kuny5cvl5eXoJvLz8+vr6/E1Db+OQx4CZSTFZkqKY3jXLF++vKKiAndHx70HZZceU7bOxMdPYMsjn5Ax+/v7cep5zn9OlKchENsBOYTLN5B1xP6dHdwQSL9fAVHjflXJcKMJydLJEYWqygiUudxhn53COJ4CPsiCYZJ7MR3Hoa9tRUXFH/7wB2grMaRuRrdIwFnAQQWj/6We7e3tZWVle/bs6e/v37VrFybSdXV1LS0tMEYGNCeqh9wNJTlRpOsIMkWnyRkjNaFAz2zHceRCpeu69MrDbETu4+TjEEBDJd2XmzckXNOmTXvnnXekGyRWEQNOwKyqqsKAwbKg7ATEgMLQzfOSGxUmTpx47tw5Ow4PLMJRmzePnV6+fDkKsn37dmoi62to+vCADk75mLjELUCWbdguCK05AW3A86lMAnnuAjurTJ4a8Tjs62SXwj0bMDAxUw4iOP+K4UMj/cgah/QHd4/wnTDqMRqNGmZse0DPJASDvs0o0CaNaa10RsdBBaWlpWzJxopiQvy+/fbbnTt3wvdj2rRpR44cETe/J/b19bEDJ5km1MFCS0sLjYDPP/88XH3k+e6wrRgmGG6ZkEwarxJfELYTY4TiacJPPPFEZ2fnr371K8dxBp2oSBiRMtdYJkyYgCEANUIFML3nmqpUlZigHcbj8c7OzrO3fvaBP6hWJovcjUHHiEM2FdBbkvTv378fqQHAeDyOLJAjyYbz/Z+BKnyYjex6enqMUy5YcCyNGouKRg3StcnIK0Mbem9v77p169asWWMfJkE1KGRE+nkozbp16xKJxMyZM7kgjo2b8owITy2HQC++D/v/u5IdX19fX0lJiTQfokj79+8Ph8O//vWv5UIz6lKiefDgQbqB2p+LQ4NmZ0GwUqnU3//+dx7HXldX59dKMM7xJUdSdCw7evQoxz82HR4DgnMAkHJpaelokn4UHMjbxScOfgJNhp6eMxxHaYzhykBhYWFXVxcbCd/5kXXvYcu0CygLbjc8hsgmZIBAYmQ0VCMa322569GOExzCs1OMaY+kQRJD6sbGhvQ9AffMmvgY/S8iy49mTJs27eDBg9evXz948GBfXx+zRhV7Jg6LIEZcTHSvXr0K8xKPf7HP1uA5nliutV0CpLFfOrDKYxn9Kqu3t/dPf/pTUVERqx7CypUr33nnHcglJSVHjhyhfxpjLl682P7eBYd2+WU9omH0BgTNqC/GDxB4Br8n4Ol0etWqVVAVhEmuDBw+fJiayNd/aPowKWQ3bdq0v/3tb4YnJEHzFKLRKK1rttMm/TZxCqc81M+IzE98BOBm3CKLupl4wJq28dSIX1INOfY1NzfDc8M+XIhtXn4FBa95QFtCTRmvNubMmzZtYrcprftSpqX/hRdeoFsz/QJu9uFc2cuE5UuHFuKJ/kcWAQYm2SHDqCQXqIGebMlMUApffvklzXk1NTXG6pOMCbnjlo/x1q1bt2/fbrS0gEtM769fv7527dpFixbROiDPMcd+iQceeECmw00FkkmjytjJs51IQKAtnRRgrQg+ghyP2KSfyHOrNGoE1j2MR5IESlUJINohNOzs7HzggQdkt4xo6GrY2lEuo2Wi6hnHk/R/8803y5Yt279/PzyvSPo3bdoE0ggAPUk/jWiRSATGNYkqoSYmMItn0ral84hRgyQG9uZmtAqZHSEdmpAR6acLbCgUqqmpycnJkRs4UJdy46b9igb33VVVVcHn9OMdOHz4MFegsMhYXFxsf+/j/fff/+KLLxLit2LFCrny0tPTc/bs2Zu78qdNm2bPNdnH+XUWnZ2dS5cu/eUvf9nX12efRJl/6wc2xqN1kBQ5VjweR5XT0o/KSyaTW7du/eSTT0h2R5n0k5fbbHLQ5iX5hHwh+SApPpuvsTJAfNiXEQdJzvjWGUr6hVMBmHhxzIjxrIwzNJnESKrqmVQmxm/PBxm4f/9+2psjkcgXX3zBgcoTQ+pG5JEUI3tSLs9Ao/9FOr29vTixkY8sWLAAXx+kP5WRNctCQSqZSCSy9XT0TF8CxdEO+9igKr82SjUgGBMDbAjGaTBST1gWLl269NRTT8mjY9atW5e+9eMmrRUrViDHl19+OfH9340bN4zewM7CUC/gcv/+/cjIExBSfNajsTJATWTvNwR9bu7JpgkA+uBv8JdVOJHD0nl9ff0QmqjMDrJndxSAIVeSh/x4cOKZ32WfJouA/Qae9ctpP61yDPGLT87EJuG6Lg9hQ74Y0EF9/GSwFpkIi4lHDAO2cQQQ/XxwIEwikeDjHJFZhHQ6XVlZmZOTU19fT4cufOF1+fLl3CwL9GRLlmm6rvvll18uXboUtVxUVNTU1JTw+tmn7SGLAJMf0pR/A9SgVgBKDn+8haGQ8BqUke1E0lM+29raimPKJk2axAN8edcWMiH9sLqiRnBygDwAbdDTe1zXRT9sHHWKroatHeViqfFiYqjAescAACAASURBVI+1PP4OaLB5sElzBgjS/9VXXy1atAjR8Mibb74J3xtgLgsOWEBcOe9yXVcek/DTn/4UamTYEmQbMGqQpF+2GSnL0tlVllVIpqTfdd0TJ07gU/bGLitYF+QphGi7WWkJ1DybrCzPiIwB0Wg0nU6fP3/ez20U+ssakjpAZs/CZUSuMoPdlpaWtrW1YTkPSXFzmB/pl7nQ0n/s2LHx48ff7tN7kDV5ueM4ctiQivnJ7Hf8WC/rDlYoecQK5pCMIHs9vk5GR4D3QdaRVECGS4WHU0CZji2TGPkVn4/gbb/pcu3ngMGYngKNeUBg3Lhx+EoO1sE9MaRuxivJyMZ4zAGYgp9Pv9QQk2FoBdbrui6XwuVgLJ+iLJUcKdIvlyCcW+vaH330ET/9G7ztibxnwYIFJ0+e5PtOpwWco0f9u7u7X3nllfHjx9PiJRuk7L4N2e4NJBRyxZJ5BQisU6Ou8QjbHjdIcOKN950R5Bs0BH04WMjCjhs37ujRo11dXQnrh5Vx5k7lWRyZTrYyu44A3Oxb7Hk81y3t+LcjhE2IRaA7lrTly6xRWbL6gCEhlZEhA3ZSK/n5auSLAVGe2CNljtrx/3z5yMgCj8tenYOmrRWNsjIRpMDIPF7JcRz62GAbhjyNA+hJKJBmKpU6fvw49/EP2pwMzakY968nEon3339//PjxJSUlX331ldG6YaCk8nzcPpLI070nEongiD9pPkeVUTG2E9YFc+nt7aXFAYeJ80RyxjEEyX2RMpWnpR/hhYWFiURizZo1Bifku2NjSw1pWKE5hsSXrR25sGW6rotvXNJZAJoDDSrpui4Geg46aFRw/8YGYp4yDA2BpCy4gQku8UGSqVOnPvjgg1OnTr333nvtxQq2bbvhyTTxnmIlDeFY8aY3FyOjnfCYR4YPWciC9LOSOH9irrCo0WxmvKKMFiCglbBB+MXk3gAcNIvt9lxY2b59+z//+U9eQsB5SVx2bGxslCuPnhlB/+A6kw/ylUPrRHUuWbLk0qVLkvTzTbCHeaSWSCSqqqrAMBC5tLR09+7doOCff/45Uovd+hmLCWzxVMYwZvuFy4LwwE3HcQwXahnNU5bp86VlTEnx582b197ezsPU6TXLAZ592Yhb+odTQJbFUyAxuq2kn6dp2Z0ptrJ4Ykjd2EhQBEYe9JR9jFuc1uLxm/zD+FAGXGMfeugh7GVPJBIcbyorK42xEJe0ovkp6Yl25oHcuwbEuELiOA5nJp6ppdPp1tZWrsIzDtcuPLdkDAwMnD9/HtZH+UbY9cUQuzcYDhSsU6OuoT8pPnYc9ff38yvgIJGk3bL3y1afVCoFJ6Kbtlg4QxYUFKxbt+7xxx8/deqUp4cPek7mTuWDl4j5AQf7UHDpIDEE9x7Z89xVpJ+Nyu5jUcWoLFl9aBKElC2ZAmCHDYLfcv7lL385fvx4SfqNzylGIhGQVI7awaTfsCwMx9IPD/L169c/8cQTOAuup6cHi43yW1rASkLR1dVVW1vLwwZyc3Nff/11gzDIy1gsFg6H5XhE0AwBLNMzph8dGgXSf+3aNbzg8+bN+/jjj7H5W55ZYpQCl5L7AsMZM2bs3LmzsbFx1apVeFWxsF9QUHDgwIHc3Fzp6GEsSjALtEO2Fh4S4zjOyy+/jD4TO47YtpE7ST+/lypXFWjXly0cp4TRIQVzlYKCAnmKcXd3dzweBz/MkPRjqrBmzZrSW79jx47l5eUZixVZkf5YLCZP4saYGPA3WxsQwZdCFqSf+4fs855gG5g4cSL4tF8rlxkbcoakn09he59sQK2trfn5+Tj6htFYAVlZVYdJ+tFwo9Eo0gH5bmtrwzZWbD62hzdOTx3H+cUvfvHoo4/C+Qenicl1g9tE+mnaBB0xztyUkPrJnNXwpZUxecaZ4zj5+fkPP/wwMuLhKuQrsuu00+Swl+2sJqCArCmo5PdXtjdZNJoo8KBn8Rl/OO49dE0Jh8Pgr6FQiN7wU6ZMIVwSQz/SRsD9ymuHs//lmrsdJ6sQ6mkr6fntTEnmKNfX1xNeW4jH49L3BupJ85LxiGxgWZVFRo7FYjipsKqqqqKiAtyX3FTuVRhZ0m/DKEt3+fJleSzvokWLgAwPpGe/JKlScJoyfcpoWr/+9a/xmkcikW+++SaVSjF9iRUnk7wrx2+maQtswLJZ2tGGEDKos+IQ0hzCI2yK7FJ4HAIJjZEsKktWH8Yjru0Y8dl38ZGNGzeWlZUdO3YsNzcX+eJNhJMDjhPA1hQ46/N0o2DSb5xECbJFNkmqvWrVKmpCVSWjwFInPraNvcvTp09/77338vLyFi1adObMmcLCQnxRC+ghtZsrdTAUouEtWLAAy5iGHxFzhIAGyT7KuCsvYQuQhlvehdNsJk0axfTLLltLf1tbG3YlkRTx9c/Pz5efzqSqEGzSL99Wvms1NTXhcPjee+8dN27ciRMnZCJSVYbjbTXG0NOnT+fe+sGrGXHY2lGDyJH71G2SDc8ux3F+85vfVFVVPfnkk7m5uezT4OEWiUSOHj1q5E5+CMxlwak2BWxtHTdu3Pvvvw/S39fXd/PE4RUrVhjbZ2XD4+OGgAYjD0yTIPvJRMZILavLLEh/Q0NDTk7OpEmTQqGQjXsikeABtPIVzVCbrEg/zMZsfMgimUzCjmucaZBJBRhKQn+76zGi8RJZcOhCw33ppZeQDrjpJ598cv/99zuOg5NqPIc3HqxRWVn55JNP4tzlX/ziFzjFkoaBuro6ZCF9ftinUJmsODE/VoDWhi/Vs4AZCjxoxa/bunDhQmFhodGgeV4vCnWbjuwMLiBrytDNuLS7DCJDYjSopZ8xA4ZhJiuFc+fOkd9v2LCBi0inTp3iFzQ9MWSObCRIlpENIxyGQ/nX070nQ9AMDI1LNhVDyVQqlXn6TETCRTmVSrFlIvdg31b5BhnaZn4pe2c6leHd50iD1EaW9POsSb/ui2OnLAvfd/ZL8nGjaghsgNDS0jJ58uT9+/djbwZTY/r81gzWgtCZ867RUP0yYgM2xgK/+JmHyzZwt23kRWP2+7ofMJEAokkYDhgSCvid8si1mwt0V69eRV3EYjF8FJakHMbv9evXM4Qr58Gk33hJgbDUEyoFu/dcv34dH8rlMl1/f//58+dXrlxJB2N8TzMvL+/YsWPy9J7z58/PmTOntra2u7sbubNZSjSkDBAMzWUEyNhj4DiO55oSEiG88nHaBWi/sAWmKZm0oRibK0eo48ePY0Fj0aJFkpKS9wd8aVhyX6TMt7WhoYFfQOey4erVq+n9iNJJVVletExqSOjeeuutzz77DJeIwzcOuefm5jY0NOAINU93mnQ6vWXLFtmhGd9PiMVi/NwY2y2EQS39165d+/rrr+EQnp+f/+ijj165coWkH2rLg/UikQhWseTBehhMpesOHF/j8Tg+zPy3v/0tLy9v6tSpb7/9tqFhY2NjLBa75557bq5ivfvuu8RzyEKmpB+r5OPGjTt+/DhmzAEHP2G0tt/nAC2zIv34CJT9xuIrGDhKn/t7Mny9pW7Q305fxpEyXzmMPdiPf/jwYbKWSCTyl7/8BY1y9uzZ7FLlRl46a8oDtvFu33ywrq7u888/50dA8G4MmfTLU3hbWlowZec74/leyfL6yewFbAcwPsJOB9lNnjz5iy++wF0UakRIf7YFzNCoLDf0sEQQSIwGJf10c/f0DzGSlZd0QywuLm5tbSXpTyQSHR0d+GIdMZQeO/jUHxsb3XJefvll1IKMnPD60b2HG+K7u7u7urpKSkrk3EDKnCc4jhMwqeCnEAlgaWnpgQMHVq5cyS0xWBqSiUPmuaUBo/L169efeeYZFFP+DTgtu7+/v6Kiws4uEonw5C4mhX2HdmR5Sg8383CfDHsMHALN1xx9poQi2/VcbswdP358S0uLbD+UaR9hKXjmMjWRvd8Q9Ll69eq6deswOkrrA9Pn6ICe/24j/TzSgM6HRG80BbYTOYfE8fm2eZXnbTiOQ0uK67q0g1ZWVnIEYSna29thiJFZ0GUiFotRB7YWQ+DbF0z6jacCLmXbg55kFP/4xz8MmyP9kR599FFu0sMhfo888khxcbGdmjHrDtAEt1hAgmYI6Jk9PzFLJD0TGRRbOZpIJo33iGkynXg8nkwma2trsYLHb31KhTkE24ebI1o0Gr3vvvu2b9/+yCOPbNmyRT4rZUwmuYXp2rVr586dA/uXqvIRjE0G6eddCEYclCs3N/fYsWOLFy+eNm1awBDc09PT3Nzc2NgYj8e//fZbMkDuZQ+oaCApZztU7MyZMxMnTly7du3y5ctDoVBTUxO0Yg/mum62pB8LibKL5rxl2bJlcpKG76lFIhH7O2vUMFshI9LPnT2YXuOU65ycnIaGBs/8+IpmPmJlRfpx2rq9MtjY2Lh3794//OEP7777LmdL+Mod53nG9rsA/T07C8/4fOUMgxOPKvvb3/4mOdDDDz/86aefHjx4sLGxkfrwc7ZMhNsQf/KTnxQXF+fk5HDTEk7/LCkpOXfuHMgfmyCVkWNt5t2cX0fgWXAjkCM6LZpGBLjxwc2JbyC/p+ZJWOkUzjHpDhbQLg5DSIxkN827FOTeBpaId4MF2JPQ78j5pFyhJoaEVwpoJHxW3spWZnvz1Lm/v/93v/sd0xw/fnx1dXVra6thEJLPEkC4LUl/Nr4RMr7syjn4yQj4WBhP5qUyUiguLraP15SJSJn+aTk5OfiMBl4xP26NZzs7Ox988EFkys2Xsg3H4/H29nYc54+DRwlFMMhSN8oyZRrMeBcCeRKhCIfDO3bsSKfTfIXltNmYNBqpeV6mUqm+Wz8/Sz9P/sY86m4j/VwwGebHueDLl+2aHiFlbcq+oq+vD58HKiwspIn0piP1wMAATkwy1uF54rbjOM888wy/oOS67ueffw4Dqv2xJLQEfIuKh1B9/fXXCxYsmDBhwqFDhxL/+cltOZ6vKtaoq6ur//PE//uPU1NoQuat2trakpISnP1FHNBl0YYqiSM8Ho1PE7iu+/HHH3/xxRfS0s/UOBqSFZAtGEImPv2E13A0Z3ZoA559FOrX7zVHP8Cqr6+vp5Xdj/QfOHDg6aefdm79XnnlFXuOB634cbc1a9bIPvnGjRtHjhyZNWsWUpBjWSqV6uzs3Lt3729/+9tHHnmks7OzqqrKcRyarqASNsAMmfQbbtvAB40qmUx+9913RDUrwXP5CCkgiwDSj0OQY7HYtm3bsHUhuNbYugIIJE5RM/oW8v6ZM2fivR4YGIjFYqFQCFuw5DTGKH5/f/+rr766ceNGexOaEdN13cFJfzKZfO655+Bqwv4Crj6FhYXt7e12oreb9HNkYtPMXPB7wWQp2MVIOiUjGDIaAd17jLuGYwlUtWuRPgAwB8qBedGiRfTENb6lRwLHclGZIZD+4uLiixcvGvpnftnb2/vzn/8cBTQ+m4JEaGMw6gtoBBNW9n13sIABUJCoyY7Sjs/vkQWstttPMWTPnj3r169Pp9Osd6NnCcYQjYTPGrWQ1SXbG3WD0N/fX19fz61yRpp5eXnr1q27ePGi3X9JAPERg88++wwTWk8mEUD6BwYGduzYgWelAsuWLduxY4e9kXTu3LmwkBll4SVO12ZSCxcu7O7uxpiHdYxYLMZTU/kUDphbt24dHpQ2Y3n8iGQweJZQ+IEss7Bl7lbn4RUyjm3mZ7nWr1//0Ucf2fgwQrb68FVlK/XruodA+nGSBnTzayGy4FnJXJx5/PHHJSvKKhHXdbH46UcHB02NALL3wyNye/q8efOwbwRfwfNcp+UOSMCVn58fiUToK+hp6EFNyXxTqdSrr77KxrB27Vo69EKruHV6D2ezttcKtrXws6Z2hKqqKpp10WWVlpa2trYeOHCAvQfIyU3PcuMjxNAH6LHtSbQDbsloAMGTrzOa36yDEXCKLif8DCc79HutDNIvHzQUYzuJx+O9vb0rV6587733iJJ8kHJHRwd2kTJE+kDiU4PHjh2rra0tLy83+vPi4mJ2a9hcwQUNNJghk37D+ItyDf/tHg7ph/P9/v37r169CgIMrfxqjdXq2fCANs795HyJVSC/3PzYY49NmzbNcZyHH37Yk2bzKfYzjuOMwBd5ST2NriSZTFZUVCxdulR+yJZKgNkEgMKYFIzKZrinAC8oY1Lud7lp06af/OQnRUVFu3fvlpZ1z5QRiC4moM6MZzmEG60zmUzu3LlTDqJPPfXUzJkz2W+uX7+eK5Kka5WVlalUatu2bVihwzIuTqpyHAerPJ2dnSjvn//8Z0Qj2nz/Myf9kUikurr6888/D+4mjFJ7XmLXvOM4tsvphQsXZNmj0ejatWsJhdyEykApcPi5swX0LDU3w0FhqmpHJj70orbjBIT8+9///t///V+5idZopWxF0qOGozsbiczixo0bra2tb7zxRllZWUVFBRuk67rHjx8vKSl5/vnnDxw40NHRcePGDfkg5VQq9dVXX23fvt0+XL+4uHjVqlVoorI28/PzN23aJL/EzgPmEU2693D/q8EMeHgLRuVUKtXa2lpdXQ32I7MLh8Nbt24Fe2tvb+cmchknFApVVFTI0zlh96qoqJD6FxUVdXR0YM1q8eLFTAGrGR9//DGta+l0GofEIc5DDz30m9/8pqysLBqNchDlN8V5/F9HR8fKlSvxiGd9EXY/gedicTxmzP7+fpxyjfSnT5/++uuvyw6qurpaXrJ0Q9OHrypbKUm/wfZgwvzXv/4Fw79nwf/1r3/NnDkzGo2iGZSUlFA9ps+SDkdgf+44zhDOM5BZw/Ruz+tknACZANpdyuXLl2VVAorFixf7WW0GBgY2b95svxp+jxiknx+wX7x4cWdnJ1zmJk6cCK9CFMEm/Ybbg/SC8zu9R8ahDzRJv+07kE6n29vbPUcuoOfZNgJuyeowuLW8BZmrf4YxjjH5wQrPZTeo4dnaOabYVU+GzdkI28mQW5rruq+99tr48eOfffZZdsu0PkybNu23v/3t3r17Ozs7U6kUj9iHqyrO3kHkQc+tD9AQRkN2iWTPBq0itpkLsVhMLl0mxE+e07969Wo7r5qaGumHQ638ao0RPBseLEFwrOUHjGVBuru7f//73/OUuaKiIjpNyWiG3NTUhA/2BcDLRwax9G/duhWmLPkpBDycSqX4puHs6ng83tHR0draiu+6e9qZ8Cz9XlpaWjo7O999992pU6dKSxj1y1a4+e33np4eKtbf3//UU085juN31oFn+pmT/vr6en62zbD0Hzp0yLA1wjnn2rVry5Yt43BVVlZ2s/uWXh87duygnUmeZsWTWyZPnvz2228b3feqVatYas9CjU4gnRnghcJMDx8+LP2hV6xY0dvbS9MRppQkrARHCp59H9P/QQhXrlzhR16HSSbQRI15nZ/xm303+6nLly9v3ry5vLyc8wFAzc1wruvytC5ZCxMmTCgrK9u0aROWET/++GOjkcvIv//97zGFSCaTN7ereh6M/Ze//MV13f7+fkmga2trh7CR1zBnUpOlS5dyGEM7SaVS7777rqfnT21tbX9//7p16wxkkNrKlSulw6XBoZljfn7+22+/ffLkSbZ5vA7czsGYXOGVrzzvclDPqnmTZxjHkn777bdz5sxh4jy57+TJk/h2QW1t7SeffHJbST9Nv/yC8rlz56ZPn07PDajHhioLzlUyFoHCMO3xMhfXdevq6pDy0GbmTM1zEZ93R0S4ceNGZ2fnBx980NHRYRNiOwvs5/nwww/b2trwbQQ7DkJI+vv7+7du3YqXhT7i6XS6qakpPz9/4cKFzHfbtm02Z/JLP5jvGk8FkH4jZs+tHwI//fTT/Px8T98qsmT5+VU534CMybnnayhX/+h2e+PGjR07dsAe13rrB2cbOr4b2kINuroZCqAL4sDX09ODKoM1wXEcHibL4vCNyErA6/bdd9/RYAE9k8nk1atXjZWuQ4cO5ebmYsjmSUotLS2xWIzkGDZcLCixUMbXbbEPrbm5OXHr19bWhrVTdolkz1mVxYgMEhxMLbiNEOtyS5Ys2bNnDypxy5Ytubm5UiVqxT7KPlYYq1jjxo1btWqVYaiqr6/HKYL33nvvl19+CZwxcd2+fTvOVMU3fJ599lm43oGBL1++fMeOHW1tbX6mt56enu7u7kxI4CCk//z58w888IDN+I22Cyd7CXfwh2/wOTcZ33EcHvNvJJ7VJT85KRP3e+X8Us6c9NP1E9nJrTzcIIU6g8sscpQr7Dj/lOMZjhbF+QOO4yxevJhOWvhOAjzgu7q6jGNwhkki/aAYQjiHTDkeSEJWXV1NczL2Xh84cMCPsKL7CPaZGYKSd+QRdj0SmaFpMkzSL6cffFMmTJiwfPny9957D738lStXampqcOQU40Bgf8dvdxgRli5dyh5NFrCzs/PZZ5/lfFWaojGnDYfDN91G0XOxjEbi9iVHZen24DjO3LlzT5w44dcPXr9+HZ/TYoI8nMD+tlRxcbFnUul0+vjx41iHZToLFizo7e3lMinJN9xDGc1xnL/+9a/Ax741HDMzFwalr7PUp6ioSH6j55NPPnnppZeSySQt8dJMZU8aZZ0GyOQiMjUjvt2VOY7j6Q8jLSMSQ2MV2kg/20tptsjEbBaQPjZVZ/vBk4AER/MWST8Go2nTpuGL1FKHq1evfvbZZxUVFVVVVStWrAiHw3IEZHcnKytbGZQ3c9JvZ1pdXW3QVvI2+3wVMtQA0j8wMLBp0yZ0YnIJ0fiQM0t60yf7n//8p8SNclak3zYZ8KjigLMHjBJ5Xmb44ad0Or13795wOCwPbceByDm3fiTHmbj38MgBAgVBrpmwAzHiZH5J0u+3f0Oe3tPZ2Tl79mwj8VAo9Oabb7LK2Hg4CGKDpSewduBNLy8chLNu3bqrV6+++OKLs2fPlivJ8+fPp69pOp3+/PPPq6ur+UFJ6BYOh40zUqV6g8qDkH7Xdf0mFjJp4/CT559/3nPIl4/giJtoNDpjxozy8vL//u//ztCBXiZiy+l0uqamhlgXFhZWV1d/9dVXdsyAkMxJP8m64zjjx4//5z//KRnGvn37wuGwbWhE7wC7CJZHk8lkU1NTRUXFggULsC9q3759jz32GBk/tOVeFvmSl5WVSTfHgHKNzi3uM7vZQOUZJh0dHbNnz6aXha0MZ8zsy1zXRTupqqriyWX2gz+IkLNnz+LVlTxsyJqTEAfQqeDE4WiUl5d386yGeDzO7Tr2U8lk8vz587W1tWVlZTBdy3VJbOtHZzRv3rz6+vqApJA4DP9z586VBtp0Ov2nP/2JC/rShcnPfMgBnqTfdd2mpqZwOLx48eIMd+hCmfnz5y9atIivGzfn3XfffRs2bDAWCjwhisfj8+fPx3IfDzFMJpPgQ0j54sWLP/vZz2bMmBGNRmtqaqSGsieBmQAs3M4rwxCeYSdPNYE+9gERTJOW+BdffJEbNM+ePQt7Fc3zjB8scMwOaKUGlQ+FQqtWrZLLKTIL+Oaye58zZ84f//jHERk4kMtNdsjT3D3JolRmUBkea3ePOWZQhWUEkn4cVkgzjYwDerBkyRK8/vn5+bKX5pc0/TxvMwnHh8Yz/ygp2ypa7NatWz0326BlBjRLFBMgyO4FY3dtbW1OTo7nyN7a2lpfX//MM89Age3btwf0HhjH/Tg3ykJIjxw5Ilv+m2++aRjmjaq5HZcffPDB7NmzDx06xMTT6XRDQwMWgrZs2QL+c3N30OzZs286WzKa67oY37lPQ5LGioqK5cuXG12ifHaYcl1dnb07HGmiCniIXDKZ/OSTT9gy4/F4V1eXkTsaD0m/cXfQy5aWluLi4vb2dq6lT5o0qaKi4siRI35kO51O48OX+IpFWVkZl9cGzc6OMDjpt58Z8yFYA71y5YptITDKztMPPWsrmUz6uRui7wi4a2T0w7qkwdUwwnmi9MMq2tC05UKHtJEMLamReiqZTJLjZp5mOp3u7u426rG1tfX8+fPZjkDpdDr4NAa+XH5+CH19fYlbP9JTvFbByWZY2KHhA3cLOfNP3foNmikK61fSQR+3I4Dfg41J41kymRy0W7NTG1oIWksikcikLx1aFiP7FF0oA77dlnmOFy5cOHjwoN8EJvN07khMfCh0ONzijqg9OpnicKrRyetuy8Wz97jpUpht/3+3lStzfdCtZehL45ksB9AbN26M/iumpN+zUjRQEVAEFAFFQBFQBBQBRUARGDsIKOkfO3WpJVEEFAFFQBFQBBQBRUARUAQ8EVDS7wmLBioCioAioAgoAoqAIqAIKAJjBwEl/WOnLrUkioAioAgoAoqAIqAIKAKKgCcCSvo9YdFARUARUAQUAUVAEVAEFAFFYOwgoKR/7NSllkQRUAQUAUVAEVAEFAFFQBHwREBJvycsGqgIKAKKgCKgCCgCioAioAiMHQSU9I+dutSSKAKKgCKgCCgCioAioAgoAp4IKOn3hEUDFQFFQBFQBBQBRUARUAQUgbGDgJL+sVOXWhJFQBFQBBQBRUARUAQUAUXAEwEl/Z6waKAioAgoAoqAIqAIKAKKgCIwdhBQ0j926lJLoggoAoqAIqAIKAKKgCKgCHgioKTfExYNVAQUAUVAEVAEFAFFQBFQBMYOAkr6x05dakkUAUVAEVAEFAFFQBFQBBQBTwSU9HvCooGKgCKgCCgCioAioAgoAorA2EFASf/YqUstiSKgCCgCioAioAgoAoqAIuCJgJJ+T1g0UBFQBBQBRUARUAQUAUVAERg7CCjpHzt1qSVRBBQBRUARUAQUAUVAEVAEPBFQ0u8JiwYqAoqAIqAIKAKKgCKgCCgCYwcBJf1jpy61JIqAIqAIKAKKgCKgCCgCioAnAkr6PWHRQEVAEVAEFAFFQBFQBBQBRWDsIKCkf+zUpZZEEVAEFAFFQBFQBBQBRUAR8ERASb8nLBqoCCgCioAioAgoAoqAIqAIjB0ElPSPRSWo+wAAIABJREFUnbrUkigCioAioAgoAoqAIqAIKAKeCCjp94RFAxUBRUARUAQUAUVAEVAEFIGxg4CS/rFTl1oSRUARUAQUAUVAEVAEFAFFwBMBJf2esGigIqAIKAKKgCKgCCgCioAiMHYQUNI/dupSS6IIKAKKgCKgCCgCioAioAh4IqCk3xMWDVQEFAFFQBFQBBQBRUARUATGDgJK+sdOXWpJFAFFQBFQBBQBRUARUAQUAU8ElPR7wqKBioAioAgoAoqAIqAIKAKKwNhBQEn/2KlLLYkioAgoAoqAIqAIKAKKgCLgiYCSfk9YNFARUAQUAUVAEVAEFAFFQBEYOwgo6R87daklUQQUAUVAEVAEFAFFQBFQBDwRUNLvCYsGKgKKgCKgCCgCioAioAgoAmMHASX9Y6cutSSKgCKgCCgCioAioAgoAoqAJwJK+j1h0UBFQBFQBBQBRUARUAQUAUVg7CCgpH/s1KWWRBFQBBQBRUARUAQUAUVAEfBEQEm/JywaqAgoAoqAIqAIKAKKgCKgCIwdBJT0j5261JIoAoqAIqAIKAKKgCKgCCgCnggo6feERQMVAUVAEVAEFAFFQBFQBBSBsYOAkv6xU5daEkVAEVAEFAFFQBFQBBQBRcATASX9nrBooCKgCCgCioAioAgoAoqAIjB2EFDSP3bqUkuiCCgCioAioAgoAoqAIqAIeCKgpN8TFg1UBBQBRUARUAQUAUVAEVAExg4CSvrHTl1qSRQBRUARUAQUAUVAEVAEFAFPBJT0e8KigYqAIqAIKAKKgCKgCCgCisDYQUBJ/9ipSy2JIqAIKAKKgCKgCCgCioAi4ImAkn5PWDRQEVAEFAFFQBFQBBQBRUARGDsIKOkfO3WpJVEEFAFFQBFQBBQBRUARUAQ8EVDS7wmLBioCioAioAgoAoqAIqAIKAJjBwEl/WOnLrUkioAioAgoAoqAIqAIKAKKgCcCSvo9YdFARUARUAQUAUVAEVAEFAFFYOwgoKR/7NSllkQRUAQUAUVAEVAEFAFFQBHwREBJvycsGnhXIBCPx3Nzc8+cOTN8baLRaGlpaV9f3/CTyiqFRCIRiURisVhWT2nkzBHwQ/jMmTO5ubnxeDzzpDSmIqAIKAKKgCIwhhFQ0j+GK3coRevr6ysvL8+KZ98+Ph2Lxe4G0h+PxyORSCKRGBTQvr6+0tJSSfE9KWnmCfrlOBzMz5w509zc7JfyEMJRahsiv/DgLDKs9Gg0CkIvEU4kEqWlpaipWCxmqxSctd5VBBQBRUARUATGMAJK+sda5YIDOdZvw4YNpaWlVvD3AuLxOIia4zhS/l4kx4lGo4gWjUZd1x0OAQ1GP1veRuUNhQe9REH8lNmwYUPurd+gc6G2trZoNOo4DucqkpK6rsva2bBhg5xFMNxW1XOBwsAcmdrPeoaUlpYaBYnH454x7UBPZfxo+tBs7X6pydrp6+urq6sDyEQYQnl5OYA1IJKPq6wIKAKKgCKgCPwIEVDSP8Yr3c/aGsCnSZ13795dWloqCTG5PgVJ+g8fPlz1/d/mzZsvX7784osvfj/4/189//zzp0+fTqVSfnWQFZeVetoJZkIBY7GYTXMHDbEdSAAO+DEpqeu6MtzQUEaTt6TafrKML+WsOPfFixfls1KGbo7j2IzfEzFG87yL+aRM35D9nkJFMHE0vFgsRuhisRjbAAONxPVSEVAEFAFFQBH40SKgpH9sVn3s1g/EiFZnWVTJIGU4ZLhJxOPxrEh/X18fTd0LFixobW3t7u5OJpNXrlw5fvx4JBIJh8PxeDxx69fS0rJu3brx48c//PDDnZ2dtg5yXmHfzTYkuLxILWAi5JldJqw6Q/bpF02q7SnjwUFnJp4ROF0JTsSz/fghRiUTicScOXOMJYVMrPiZxJHV4Qmd39oFiyxTUFkRUAQUAUVAEfgxIKCkf2zW8u7du3Nzc0H1bKLjyZNsICTtBpnDZCDYvQeWWtpckSySsuljW1vb9Fu/jo4OQ4EMlTSewqUf5zO4r6EPST+0NXCzyagk/ZCN9Ae9pNO5X2HJoeWKiiF7IuC6rlTPLw6jQVXqI+MDDZZF1iwRY3wqHL31YzgEG0Mjguu6GcahPrYQj8eN3EdwR7itsIYoAoqAIqAIKAI/CASU9P8gqmkoSoL4SuYaTEwRMxqNch/qKJB+13WPHDmSk5NTXV1t+PlAWyqTFQSZkLxgconcDYJrTBIGVSkaja5duzaT03tA+m3+Kp1qyKdt0m/wcs90GCiZfcCDsVjMb+5EHxs/0t/c3Ox5co6NeeYeXJ7gEzfZTlB3VBITCVnqQStOI9wNCKTT6dOnT0ej0ZKSkn379hn9g6FhMpl89tlnjx8/boTrpSKgCCgCigARUNJPKMagEI1GJdcBGZLTAJSZ4dgfSa/r0SH9V69enTVrVl5eXmtrq6wDe9Ii7wbLwyf9dMEngDbBDdABkNLjvLy8PDc3VxJT49lhWvplTTFlVitDPOmv4c0PTcCYE4mEcchpNBqV5NvGBDMT7BrfsGGD0dg8Sb9k51JVKXtWKAoYiUSwqMWawkSCl/YcSaas8t2JQDqd3rZtWzgcXrdu3fbt2x988MH169cPDAx4aptOp2trawsKCtra2jwjaKAioAgoAoqA67qDkP6jR49GfH4VFRX9/f2ZgxiQ1Pr165mOZ7SSkpIrV64wjgoBCIAJ0axLobS0VNpfJSOUsuu6ZNuSSoLMjbh7j+u6qVRq+fLljuNs375dlsvPzMwSUZA0FClk+Kz9oE2L6ShiE1ypLWWAxpTBoefc+lHhAPZv02KmPKilX65L0G/Hpt2SDaO8VEyeO8QU5N1BU6OSwMHOi8igXIzPYnoKNukHs+e0Crt4sbwQiUQ2bNgQiUSwo0A2Y8/ENXBQBC5evHj9+vXgaDdu3Ghra/vwww+7u7vT6XRw5L6+vtbW1paWlp6eHs+YZ8+ezcvLW716NQz8bW1tU6dOnTZtWlNTk2HyTyQS//Vf/5WTk7Nz507PpDRQEVAEFAFFAAgMQvrPnj2Lk1aKioow9ufm5j755JNVVVWbN2++ceNG5jgGJFVfX890EG3u3LnILhQKlZeXv/jii35jAx9UwUCAxmOSHknu/WQkEovFcN45N/LePtIPQ6zjOKtXrzaKkMmlYXvGIzZHtJPyo9cXL17EnMGwQBvLJnaCgNRxHMnpWQuMz9NpDPqLCAFTC8mPpcxFCcnOA2RJxDk7YiBai+M4OLsJ6ZDr0xsHIba2UjGUXU5FguMTIluQFQoNWTsSYbTbvr4+BEJJGcFOWUOCEbh+/fpzzz0XCoXYBuz4/f39NTU1juNMmjSpoKAgFArNnDmzpaXFjum67uXLl5cuXZqTk5Ofnz916tScnJwFCxa0t7fLyOl0es2aNY7j7N+/n+E1NTXTp0+fOXNmOBwuKyurqqp66qmnioqKQqGQ4zgrV65MJpOMrIIioAgoAoqAjcAgpJ8PkBxwrOWtbAUmJdmAkUg6nd66dWteXt7Zs2eNW3qZIQLkOhT8iL4Ml4lztgBeLvfvGrdkq8hqIy+yA5UMaA9SK0P25OJsYwHc17BqG8kaJn+DaNqRaXi2b/mFAChwKZJpW2HODSSfljJJvwGgZ7XatNtPvUzCOYGRahuNgfobkCJ9oyB+mUrSL+Ogom0+ivrC7OvMmTO0+stnVfZD4Nq1a/v27Xv++eeLi4tBqenyZz/S29tbVlYWCoXeeecdGPg7OzsXLFgQDoclZceDHR0d06dPz8vLO3r0KEI+++yzwsLC/Pz8Tz75hIn39PTMmzdPthysQJaVlfX393d3dzc1NTXe+p0/f37v3r2FhYXq2EP0VFAEFAFFwA+BrEn/8uXLjdVVv6T9wknIDI5ixB/+V0uNBH9slzbXlyzQTwZKOPGTzD5AsB2mh0z6X3rppSHUkR/pNxiDnbKfpd+OyY9qBbfYEXnQIMFSSXlLysMh/ahZSdkzkbksYE8hPBXjNMAzfiY5es7QoDwTN/Cn1d/O1IiplwYCra2ts2fPLiwsjEajL730EirInlnhKbzva9askS49ra2teXl5RUVF0i0zlUqtXr3acZxt27bJHLGV/9FHH6XLPvou4xU+c+bMQw891NXVJZ/t7OycNWuWOvZITFRWBBQBRcAPgaxJ/xB4j5G3kn4DkNt0SdJP4iiJvjSdynAoAybd1tYG9x4mZbP/4ZP+vr6+kpISmhIDbN4GO6QDkk372MaMR4xLySqGRn95uk6GOQYo4MndWXcGzp7c2kjc75KUXeY46BwbbSAej0sOLWW2HKM6gAwoYybxPV8H2VwBhV/p6FuFVl1XVxeJRIbfa3lq9WMIZMP2JP1dXV0zZ87Mycmh5R6Y3LhxY8mSJcZGHcwEJk+efOHCBQkdtvLLRPxI/5w5c+R3rJPJZFVVlTr2SDBVVgQUAUUgAAEl/QHg/LBvkamzGJLcS/olw2nVjsVipPiMwBAKBhnlxlCDZiG+JNnUytMoyLvBApI1WCY8ATzzkqlJPi3DbRnFt3OxY9ohnMN4ciYjvl1lspok0Zey5O4yQdaaDJQJynByOz8yjXCjFHZqhmLQLRqNNjc3201FKpCtDKxkMzPKi7bhuUSQbV53efxUKmUcsuSpcDKZzOroBSTChmFUvbw7ceLEc+fOGZmi5S9ZsoRbv7AmUFhYaFjrWVM1NTVIBNMA4xU+fPjwL3/5S1nSffv2qWOPAbteKgKKgCIQgICS/gBwfti3bAYpWZEkZzKcZ7bIMR7jt2S9GKdBuWRS2ZJ+2OqCtwkGVIPN/BDZMAx7ppAh6UcWoLwGC/FMVgYCWPhKSfu6jCNlW21P56UM2bNRrTIjW87c0i+fzYT0y/hGU+nr6ysvL8cZO3JBAK1Ioo2PQ0vCZ2/gtrFCmnJiIJUZM/KXX345Y8aMQ4cOBZSot7d3xYoVTzzxRLbOmcGkH84/nm0bt0jxeUiX7EagMG/BZV+e6CV7oY0bN1ZWVtKJqKOjY+bMmerYE1DpeksRUAQUAQOBESP9169f/+Mf/3j//fc7jhMKhX7xi1+cOHGCHbTMlaNI8GA8KAuRaapsI2CTfsYBHaRrCsMhGEwO9YWPTNkDtk1AYc9btWqVrH348Egal06n29rali5des899+zYsUNGNvQJuDTKyHIFm6vtu56shfMf3KU90i+yoSfiy2c90eNTiG/EsYks4hvsGZjb5fILMXLhOa1+8RkuSdgQNuZ6qg2HHFQlFeN8CeXFF6bputPX13fx4sXS0lLHcdCNoJUa6mGyKlsd0R5jwr59+yZOnGhvnEUxwfjLysp6e3uzLTi7awNb13XT6fSqVascx/F8I9AmCT69+FjFUhPUlExn//79OTk5L7zwAnqGK1eu/OxnPzty5AieUsceiZ7KioAioAhkiMDIkP7jx4/n5+fPnTv3xIkT//73v7/99tuNGzeGw+HKykp7QZmjiJL+DCtpaNEMQsxEEB6NRsGr5ECLODyZnqwXNWXQMiZIJmdTz9LS0ra2tkgkQtYohQkTJlRWVn755ZdMKlthUGu9fXKLMaXxyxGFJadkNFJ/T+5iRCPjodNUwFN2WVhTTBaC5/TAiMO6s7maHROk324JMiaUMVKzwWRjkM9Chtp869H8eGlY9+0yes5/WB12TWEpoLm5ubS0NLhotqo/xJB9+/bl5ubu27fPUH44jF/OBo2qp1NZMOmnpz5fKM9XAKRfuvvfPH+zuro6HA5v3779woUL5eXlVVVVPJRTHXuMWtZLRUARUAQyQWAESH9LS4t9UAM+keg4juypodDtIP0nTpzA9wSy/btr166h2ZgzAffOxsEoS+MolAHT4rhLzsQRXT4FEi9TwF0+zoFfUrfbVGpoLucMkKm5kS/jl5eXw6Ec2jY3N4NhcOuw8SCnLgGFAg7O94/kZzpo4TbRtNHmI8g0Ho8zDkpHqI1wTidYTBuZQUOwK3fQaJ4RoBixknGoM0sHAbCgOaE4LAUioCxsb8YsCHeNSmFnAgXYGFDFuPR80NBtbFzavH+YjH/4pJ9vGV8Zz+aB+jLaQyqVevfdd++77z58l5f2I3XsGRvNVUuhCCgCo4/AcEl/d3d3cXGxfQqb67o82MFYdOY4bYzfRuGzcu85ffr0M888kwnjf/755/fs2YMznhsbG0+fPm3kO2YuDQpF1khSxZJKck/TuKdhlRbrDRs2wLniLtwoSSZql5RFlmwG0YJJiXyQMh6RzZjTiYCsUS9ywoAQElamf/cLwZZ+lpRTAmKF1mighEDGsXc4xGKxtWvXwrPfrmVkx2+KSTxxiynf/cAOWUPJ+4fP+OVrIvGEeuxS7Pkt9/YMh/R7gmA79ly7du23v/0tviewevVqzg08H9dARUARUAR+zAgMl/SDwYfD4Q8//NDAkUOCPMBBjiLBY3BWpN/I+sd8Sdilyz5Ij6eNDVjZBOsHiqG9vzO4IEDGYJ/Bj3jeBd33ZD+e8TnHCH4LPJ/9kQeyhds0FDtMPGsBgA+/ou9+8MH733777RUrVvzqV7+6du3acHSmjcZGmxXhCThnZXiQDd6zF/K09HuqvW/fvlmzZvELvvg0WGFh4WeffXbt2rVly5bZa8ue6WigIqAIKAI/QgSGS/pxRIOxLEsc0ZUXFBR0dnYykKOIZ+8vo3mOJYwwygKtlSooAoqAIjAKCAy5i2toaMjJyZk/f353d/eQE8GD7K7vBtLf0dFRVFTU0NDAQtXV1eXk5OzZswch7e3tc+bMOXXqFCOooAgoAoqAIkAEhkv6gy00nncPHz6M8fKHRfoJmQrDQcB2CEFqARtAh5Mdn73d6TMjQ/jxGJjvVM0agN/Nl6MDEYzfBQUFkydPbmhoGOaepQDSz6M2Pa0zsPTTHtTT0zNv3jy5/ChrCiOFZzqMlkwmK2/9uJ0XSw3MAjFramqG9m1vZqSCIqAIKAJjFYHRIP3Gp1vgUOHX+xPoXbt2zZs3r6enhyE/aCEej2flyAGUbOva8EHwc4DxCw/IMUPfmDNnzpSXl9MVm0M7DrDnPoHb6noxHNKfuacZWIgsiCfpzzxBP/A9i+NXg37hfomzRgZtsXdDzfqVorm5GV8A8IswzHDU7N0GERg/Tuc8dOjQ8Hl/AOl3Xbempsbv9B4sAk+ZMuXrr792XZff6LVtPZw8BHf4DQ0NM2fOpGOP67pff/31lClT5Jk/ruvu2rXLcCgdZkXr44qAIqAIjBkEhkv6X3vttZvfWue5bBKX/v7+srIyx3FmzZp19epV3sIGX8dxArr4dDq9Zs2a5cuXZ/gpGagxhAX35cuXf/fdd9QtQKCLqszl5mGUdXV1MsSWMcjhoHHIHEdlZNir6Ft/m0g/srbnEp7cNAAN3MqQ9Le1tc2ZMwf0iMZOnM2ye/fubA+XDNCKTsYS2EzkYOq2YcOG3Fu/QUlkW1ubsbplAItLx3E2bNiQSCRYFobb2tokyf42ArfKjFTNQp9gWFzXHbWa5TlRNj5+IeXl5RJhubXU7xGGD1rwzOdFowmRZPxoWuD99jmebHiDCuys7KYFhu23lR8vQklJCT+p5vclL762xsc9pG7t7e0zZ86Ujj3sN2hEQHz7O24yHZUVAUVAEfgxI5A16Tf65dbW1ry8vJu8f/v27QaO+JS64zjr1q2TS8zpdHrdunWO44wbN87P+bKtra2goICemkbK9mUymezq6kpk/+Mn4u00g0MwFkqbLnmAEch08EhpaSkmAJJBkutTkKS/vr7eOJiovr7+8OHDRiAv6+vrbV9eDt5kNtJE53nX8TmSkiWCkjJBKctl9zNnzsyZMyeRSID0f/rpp3PmzCECnAkw5REXPE3jRi6e8zpZIk/ZJkMgMSDrkvTLcCNrGU3ekmr7yZ51RybkeXfQmg2YhAAElvqO1yxfGYmbp9zX12dMA2Q0NuZMGD9fds8mcUcgshk/SjdM3s/2wxqXoF24cGHy5Mn2QQ6062/cuJHxjx49mpOTQ9s/wzlS+HX4tmMPnkWVsakjUEk/gVVBEVAEFAEDgaxJv2F3TKfTL7/8suM4ixYtGhgYkKnjk4rTp0/v6OiQ4a7rdnR0TJ8+3XGcyspKOmgyDg5lW7hwIU1EvHVnhUQiUVpamkgkMNjY5ADhnqMjNMeZg9mS/p6entbW1gULFuALRG1tbT09PX19fR0dHevXr3cc59FHH+3s7EwkEh0dHTt37iwuLr7nnnveeOMNOdeyuRGpNsiooTYGeyPQwB/l9ZvkGJGJgDFI085n8CejpXmmlnmgZMx+TxEQvwhG+KDVTWo4KETDJP1yfiU/lDvkmoU+dgs3EJCXNnojWLOA2mghmVxKZIITMZqlLJqnfFdBBMa/ePFiz2/uDof3B5P+VCq1evVqew556dKlgoKCvLy81tZWosf2YPQqp06dGjdu3MyZM7u6uhhZCrZjD+6iCmQVu6772muvZdVuZUYqKwKKgCIwthEYhPR/8803ONIea7WwDb/zzjuNjY3Nzc3wvenv73/iiSccx3nmmWeuX7+Oz7MfP348Eonk5+d/8sknngiePXsWH2rlU4h26dKl8vJyz6mCZzqjGZhIJMrLy0E1PCmpzXs81SP/JmtkCAXeYgqoAoM+Ykg2BrlUKvXqq6/m5OTU1taS9zNlJkhtY7GYXZyRIv0YmP34WWlpaXNzcyQSodUfzMAoEXUGjTZW+eVdyGQqfvki3KALBMSTKxvfiqJ3ARhMMKH0U4NEEygZlWu48ch5i5RvR81mwmhHvGbteswkxC6+51OySditndMz1pRdF0aydw9EwYwfamfF+wcGBg4fPtzY2Lhnz54lS5YAk2g0irGAPT9Sbmtrmzp1al5eXktLC0JgtXEcR/Y/uHXixIlx48bJ7h3Kh0IhPx+k9vb2WbNmed5NpVKPP/64XGcYGBhYtGiRveyM3PWvIqAIKAI/cgQGIf1ypORwCEEOnPh0Yn5+vuM4eXl5+E7KypUr5UmdNtCXL1+urKx0HCcUCs2ePfs3v/kNUnj44Yflbi37wTsYAjooyw5mZoDDS8SkCwQ0J00hs2cIBd5iYTMn/TdVwuCXl5d39uxZI1MmCI776aefRiIRm+LYpD+gMbC8FOwE6VRNpgtNUC4a//zoL9U+c+bM2rVreekpEEbPuwi0SbyMDPzl3CM4vnyWcjQaXbt2rSe8jAMhgECzsUmiL2W7sNnWbFYzFokJSwHPqGHWLFPzEwJQYsOjQNxsQs84+HSUn1uXLOndDNFXX331/PPPe9r4JZLHjx9/7bXXaAWQtww5GGcJLB6EBSccDldVVW3durWoqMhxnBdeeMFexXVd99ChQ7m5uRMnTnzhhRc2bdoUiUTC4bCxLEl94NgTcPR+U1NTKBSiB+m+ffuKioqCxx0mroIioAgoAj82BAYh/VnBkU6nu7u7E7d+mfvKd3d379y5E9/T/eMf/3jx4sVMhqWsFBvZyBj+JamVDEzmxXBs5uNgSZaGpOK3frA627eYYFak33Xd7du3O46zZs0a4MmUmSCoYV1dHbYjyxJ5bgy1U2BSUvBj7dB/9uzZzq0fsiOXYu7ERKYp5dEh/dw5SiLLdQCpjJ/MRgI0ysvLc3NzWUb7qQDQ2GzYnIwVALtesq3ZQTGHwn6LMCNVszYsRognSnbxDXyQyMWLF2VqKDJovXELxWS946kfCkSyjKMpDwwMNDY2ohvfsmVLwN4J13WvX7/OfUr19fVYH/bUtqGhoaioyHYQZeR0Or1t27ZwOPzkk08+88wzEydO9FwTYHwVFAFFQBH4MSMwkqR/bOMIZgPCKv/iLM5BmZlcIiBNIZNgCAXeIqrZkv4PP/wwHA7z6CSmzAQli7VPdfS09Bv+MExKCjYzQ1nAopAplIlGo/AsKi8vp1XV1lMmDqeaTCz9so78ZM/iSFhAH6GbEW5oxUtUNFMGGnNu/ahGAPsPWE/IlvSDeGVSs3ZjY3GkYJP+ka1ZmZenbDctzE6JNp+SWGH+tnbtWuIvt7Bzfsu7dmqGKxdzsYU7DpGt0g865NixYydOnBi0CF9++eXzt35ffvnloJE1giKgCCgCP1oElPRnXfUkf6SnkmH4yfQxiN/6gViQbDEpCrxF/bIl/UiBH0lgykyQBaFVm1MXTy5lp8CkpGAwM2PywEwRDV49clMBI8g0pXy7Lf0XL16EzhINsH/D+iu1Ii90vn/kkYEGfZz8DjoMKL5f07LrRSYiZ5tQ2I5vNzajaLg0GO2I16xnpjIQYJKdBwuy+ujAw0AklZubi28myOpAMWUIK5dOaFIrKd9xiKQyKisCioAioAgoAhIBJf0SjYxkMioKfmxMhsukybrOnDmDPawMoWDzsKGRfpotQdEMniRZrMHhqAk1t0N4Swo2zcVdm33yKfmxquitH2/ZQoak3yip5yXBsXORZ+B4ToqMRzxrx4hjXIKJgkfi8WAlZXOS8vBr1m5shqq4NBgt44xUzTJBP8GzaXk2S4mPX2pZhf9QIMqqUBpZEVAEFAFF4EeFgJL+rKvb5vqSYfjJsPTjxE/SlADBJhmetBKEj74xsjBIgadiMy/GYUEYEo1GOQ2w43uSS0+e6nzf2o30jUkFM5VrIDaru3r16oEDB3BsCP7GYrFFixbJkMbGxmPHjsldg7byMjvIAY40dmQo5omzHVmGZPugbD+YeHBmIm9J2S5stjWLpuJXlUa4DcLQajadTp88edKoR+PywIED8rt+dvPwXJKyffrxoFGQQS+5LEBL/6CPIMJIQSQbksqKgCKgCCgCisAwEVDSnzWAYFQ49AajOxmYYQplOPIAtYrFYmRpJGcMoTB80r9//37HcUhcmDILzNwZQg09uZSdAh+UgsHMAgglJxhkafj2LY/vdF13yKQ/E35GPk1bfiZPGXGAcFYzIqYgFaAOkjLKmYlsTlK26yXbmrUbm6xQykbzHmbNDpn0E71bYW0LAAAGXUlEQVRggS2fs8rYrZ8MZ9EocPFNIkzSn617zzAholYqKAKKgCKgCCgCw0dASX/WGNqMivzA4LsMRx58kCyNERhCweZhWVn60+n0mjVrbrKiuro65M6UWWDqwxDXddeuXbt7927DuUVGGJosyStSYNlxSdIsKa9nXhm69xh82k7KVsmOgxDURTBZ9HuWfjuD8kXJTZmarCOJmJTHTM2y1H6C8X4hml18ziHtr/vRuT9gwjBoy/FTzy/cbmmy+uRO4kEbv18WGq4IKAKKgCKgCAyKgJL+QSEyI0gehnscwg2mznAjGi5pBZR0kAzGSAo8xrHcZsCVba7Q0tKSl5cnv2rMlFkeuyC85Un6YSglN2WmUJUn0iQSiTlz5khrPSIwPu2mfIRG7kz41iiTfukZkol6EkMiEww1H7HrSDpcMZpBau2ngrOz7+IEKtYCpzcoOysOln7ZXEe2ZmUBM5ft4gc8K7eMe0ajpd+4+4OGyCiLXioCioAioAj8OBFQ0p91vduciUkEmHUNIyX4UyQSwUmCkkghNdApGY7EN23axOxc14UPD2mZ67o3btzYuXPnxIkTy8rKLl++zMg2NwooiE36oQ/poDwIEmXhLeOjBJgk7N69m8ehGPFleR3HkWWh8lIIIP1QMsCI63dLOhoZeeXm5uIu1DZOe5SRDZlVnEgkPIvsGZ8w4u4okH60TCIgtxdjdsFbskRQL5FIjGDNGoDYl3y//OrRCLfb0tAs/T8giGzQNEQRUAQUAUVAEQACSvqzbgl+XJmL+KAm0owN2zYO6kF+kjQbNAsRJOm3uQ5OuDcoDi+Liop27NgxMDAgy5Yt6ZfLFDbbg3osI8uOHP12dtKHxzCZI7VoNIoITFbqTzmA9DMOBdtw61d9fAQCeJ49CQEUcrOE8SAuEU0WEwkanF4+a2Bor6gwMhJnUsOpWdB6W0/SZaMqjXqnSiNSs0wtK8EufsDjQ7P0y7fVrpe7H6IAQPSWIqAIKAKKwI8HASX9Wde1J2sEL6dhHjyAtEwazg2rIbK3eX9WVCaTMpCWcW4QYLQmC5fqSS5u8E6DC+IuLcRIBIHMneDgWV4aBMsuWoakH8k6jlNeXt7c3EwdmpubOYlifclcaAwm8ZV3IXNKIDFhNEBtFJ/OM47j2PmyAfihZIRLmj6cmsWzRknl8gJKKiPYFWToxqrMtmYJoC14lpFtKUAAUKzxgJietzgRlQgYCyB3CUQ2aBqiCCgCioAioAhIBJT0SzQykiUl4iY8m+EZ5B7HzxvkWOaHuURdXR3Jh8EzZOQhyPYsQs5eyGKZO6kbZizyErnbj0sGfObMmdLS0ra2NlpGjTkGVhLgHGIkbtNKWd5EItHQ0CBDDJmsXepjxGHFOf/ZJkEEDGXsBxniyfYAYEDWnI0wDkLsmQAzChaGU7O7d++eM2cOvt3LXGSCIPSyKco9GwRNtv8h1ywVuKsEheiuqg5VRhFQBBQBRWDICCjpzxQ6aWskPzMM/EZaNmEyIvwYLoGbJ5MedApkkNFM4AqeMNgpBOhgRw4IQUuQ3DcgspwIST4d/MjddneUa/ZuK34m+ihEmaCkcRQBRUARUARGBwEl/aODs+aiCCgCioAioAgoAoqAIqAI3DEElPTfMeg1Y0VAEVAEFAFFQBFQBBQBRWB0EFDSPzo4ay6KgCKgCCgCioAioAgoAorAHUNASf8dg14zVgQUAUVAEVAEFAFFQBFQBEYHASX9o4Oz5qIIKAKKgCKgCCgCioAioAjcMQSU9N8x6DVjRUARUAQUAUVAEVAEFAFFYHQQUNI/OjhrLoqAIqAIKAKKgCKgCCgCisAdQ0BJ/x2DXjNWBBQBRUARUAQUAUVAEVAERgcBJf2jg7PmoggoAoqAIqAIKAKKgCKgCNwxBJT03zHoNWNFQBFQBBQBRUARUAQUAUVgdBBQ0j86OGsuioAioAgoAoqAIqAIKAKKwB1DQEn/HYNeM1YEFAFFQBFQBBQBRUARUARGBwEl/aODs+aiCCgCioAioAgoAoqAIqAI3DEElPTfMeg1Y0VAEVAEFAFFQBFQBBQBRWB0EFDSPzo4ay6KgCKgCCgCioAioAgoAorAHUNASf8dg14zVgQUAUVAEVAEFAFFQBFQBEYHASX9o4Oz5qIIKAKKgCKgCCgCioAioAjcMQT+L9MxhTW3Ij5KAAAAAElFTkSuQmCC;" parent="1" vertex="1">
          <mxGeometry x="-68.96000000000001" y="2420" width="687.92" height="97.12" as="geometry" />
        </mxCell>
        <mxCell id="uKXoaIHHPF0KLf4nFBQf-4" value="&lt;span style=&quot;font-size: 18px;&quot;&gt;指标部分可以检索无监督语义分割相关的论文 应该都会有这个问题的&lt;/span&gt;" style="rounded=1;whiteSpace=wrap;html=1;fillColor=#d5e8d4;strokeColor=#82b366;" parent="1" vertex="1">
          <mxGeometry x="380" y="2190" width="280" height="90" as="geometry" />
        </mxCell>
        <mxCell id="uKXoaIHHPF0KLf4nFBQf-5" value="&lt;span style=&quot;font-size: 18px;&quot;&gt;TODO：&lt;/span&gt;&lt;div&gt;&lt;span style=&quot;font-size: 18px;&quot;&gt;这个稠密化可能要去做深度的稠密化 需要去调研深度图相关的东西&lt;/span&gt;&lt;/div&gt;" style="rounded=1;whiteSpace=wrap;html=1;fillColor=#d80073;strokeColor=#A50040;fontColor=#ffffff;align=left;" parent="1" vertex="1">
          <mxGeometry x="680" y="2420" width="580" height="80" as="geometry" />
        </mxCell>
        <mxCell id="uKXoaIHHPF0KLf4nFBQf-6" value="&lt;font style=&quot;font-size: 15px;&quot;&gt;再进行稠密的时候没有遇到什么问题 但是效果不行&lt;/font&gt;&lt;div&gt;&lt;font style=&quot;font-size: 15px;&quot;&gt;在进行3d box去除的时候 先是因为pc变量是nuscenes自己定义的 导致格式对不上 后来是因为坐标系没在一个下导致一直去不掉&amp;nbsp;&lt;/font&gt;&lt;/div&gt;&lt;div&gt;&lt;font style=&quot;font-size: 15px;&quot;&gt;在进行地面稠密化的时候就更惨了 显示在数据集生成的时候稠密化 但是深度图对不上&amp;nbsp; 后来在sam中进行稠密 但是格式出来很多问题&amp;nbsp; 后来直接runtimeerror&amp;nbsp; 再后来调通之后更新的分组之后一个 调试之后发现是变量参数没有给对&lt;/font&gt;&lt;/div&gt;&lt;div&gt;&lt;span style=&quot;font-size: 15px;&quot;&gt;只进行地面统一的时候，由于抽离再拼接导致坐标和id对不上，出问题&lt;/span&gt;&lt;/div&gt;" style="whiteSpace=wrap;html=1;align=left;fillColor=#dae8fc;strokeColor=#6c8ebf;" parent="1" vertex="1">
          <mxGeometry x="550" y="1835" width="470" height="165" as="geometry" />
        </mxCell>
        <mxCell id="HXuCBgKW5fqEcZRGuFm9-1" value="&lt;span style=&quot;font-size: 18px;&quot;&gt;TODO：&lt;/span&gt;&lt;div&gt;&lt;span style=&quot;font-size: 18px;&quot;&gt;第一个是去看&lt;/span&gt;&lt;span style=&quot;color: rgb(0, 0, 0); font-size: 18px; text-align: center; background-color: transparent;&quot;&gt;GrowSP论文的具体的细节 看一下评测的指标具体是怎么弄的&lt;/span&gt;&lt;/div&gt;&lt;div&gt;&lt;span style=&quot;color: rgb(0, 0, 0); font-size: 18px; text-align: center; background-color: transparent;&quot;&gt;第二个就是找到为什么他路面的前后分割会不一致 为什么有分段性的结果 找到sam3d BM的缺陷&amp;nbsp; 然后利用先验的知识改进&lt;/span&gt;&lt;/div&gt;" style="rounded=1;whiteSpace=wrap;html=1;fillColor=#d80073;strokeColor=#A50040;fontColor=#ffffff;align=left;" parent="1" vertex="1">
          <mxGeometry x="680" y="2540" width="580" height="130" as="geometry" />
        </mxCell>
        <mxCell id="-arGailqpxFbJRoSAnPw-7" style="edgeStyle=orthogonalEdgeStyle;rounded=0;orthogonalLoop=1;jettySize=auto;html=1;" parent="1" source="-arGailqpxFbJRoSAnPw-1" target="-arGailqpxFbJRoSAnPw-2" edge="1">
          <mxGeometry relative="1" as="geometry" />
        </mxCell>
        <mxCell id="-arGailqpxFbJRoSAnPw-1" value="&lt;h3 data-end=&quot;85&quot; data-start=&quot;61&quot;&gt;获得 Primitive 中心&lt;/h3&gt;&lt;h3 data-end=&quot;85&quot; data-start=&quot;61&quot;&gt;&lt;strong style=&quot;background-color: transparent; color: light-dark(rgb(0, 0, 0), rgb(255, 255, 255)); font-size: 12px;&quot; data-end=&quot;102&quot; data-start=&quot;88&quot;&gt;加载预训练线性分类器&lt;/strong&gt;&lt;/h3&gt;&lt;h3 data-end=&quot;85&quot; data-start=&quot;61&quot;&gt;&lt;span style=&quot;background-color: transparent; color: light-dark(rgb(0, 0, 0), rgb(255, 255, 255)); font-size: 12px; font-weight: normal;&quot;&gt;代码中首先加载了一个线性层（&lt;/span&gt;&lt;code style=&quot;background-color: transparent; color: light-dark(rgb(0, 0, 0), rgb(255, 255, 255)); font-size: 12px; font-weight: normal;&quot; data-end=&quot;128&quot; data-start=&quot;123&quot;&gt;cls&lt;/code&gt;&lt;span style=&quot;background-color: transparent; color: light-dark(rgb(0, 0, 0), rgb(255, 255, 255)); font-size: 12px; font-weight: normal;&quot;&gt;），其权重代表模型学习到的 primitive 中心，形状为 &lt;/span&gt;&lt;code style=&quot;background-color: transparent; color: light-dark(rgb(0, 0, 0), rgb(255, 255, 255)); font-size: 12px; font-weight: normal;&quot; data-end=&quot;187&quot; data-start=&quot;159&quot;&gt;[primitive_num, feats_dim]&lt;/code&gt;&lt;span style=&quot;background-color: transparent; color: light-dark(rgb(0, 0, 0), rgb(255, 255, 255)); font-size: 12px; font-weight: normal;&quot;&gt;。&lt;/span&gt;&lt;/h3&gt;&lt;h3 data-end=&quot;85&quot; data-start=&quot;61&quot;&gt;&lt;span style=&quot;background-color: transparent; color: light-dark(rgb(0, 0, 0), rgb(255, 255, 255)); font-size: 12px; font-weight: normal;&quot;&gt;这些 primitive 中心本身没有直接语义含义，只是模型在训练过程中学到的聚类原型。&lt;/span&gt;&lt;/h3&gt;" style="rounded=1;whiteSpace=wrap;html=1;" parent="1" vertex="1">
          <mxGeometry x="1060" y="2035" width="360" height="185" as="geometry" />
        </mxCell>
        <mxCell id="-arGailqpxFbJRoSAnPw-8" style="edgeStyle=orthogonalEdgeStyle;rounded=0;orthogonalLoop=1;jettySize=auto;html=1;" parent="1" source="-arGailqpxFbJRoSAnPw-2" target="-arGailqpxFbJRoSAnPw-4" edge="1">
          <mxGeometry relative="1" as="geometry" />
        </mxCell>
        <mxCell id="-arGailqpxFbJRoSAnPw-2" value="&lt;h3 data-end=&quot;274&quot; data-start=&quot;246&quot;&gt;&lt;span style=&quot;font-size: 14.04px;&quot;&gt;聚类 Primitive 得到语义类别&lt;/span&gt;&lt;/h3&gt;&lt;h3 data-end=&quot;274&quot; data-start=&quot;246&quot;&gt;&lt;span style=&quot;font-size: 14.04px;&quot;&gt;KMeans 聚类利用 KMeans 算法将 primitive 中心聚类成 args.semantic_class 个簇（聚类数等于真实语义类别数）。&lt;/span&gt;&lt;/h3&gt;&lt;h3 data-end=&quot;274&quot; data-start=&quot;246&quot;&gt;&lt;span style=&quot;font-size: 14.04px;&quot;&gt;每个 primitive（即每一行的权重向量）被分配了一个聚类标签，称为 cluster_pred。&lt;/span&gt;&lt;/h3&gt;&lt;h3 data-end=&quot;274&quot; data-start=&quot;246&quot;&gt;&lt;span style=&quot;font-size: 14.04px;&quot;&gt;计算每簇的中心（Centroids）对于每个聚类（也就是每个语义类别），代码将属于该簇的所有 primitive 中心取均值，得到该语义类别的中心向量。&lt;/span&gt;&lt;/h3&gt;&lt;h3 data-end=&quot;274&quot; data-start=&quot;246&quot;&gt;&lt;span style=&quot;font-size: 14.04px;&quot;&gt;得到的中心向量经过归一化，使得后续计算内积时能等价于计算余弦相似度。&lt;/span&gt;&lt;/h3&gt;" style="rounded=1;whiteSpace=wrap;html=1;" parent="1" vertex="1">
          <mxGeometry x="1538" y="2000" width="530" height="230" as="geometry" />
        </mxCell>
        <mxCell id="-arGailqpxFbJRoSAnPw-3" value="从模型输出的 primitive 分组 → KMeans 聚类得到语义类别中心 → 构造固定分类器映射点特征到语义类别 → 最后通过后处理（Hungarian matching）对齐预测标签与真实语义标签。" style="rounded=1;whiteSpace=wrap;html=1;" parent="1" vertex="1">
          <mxGeometry x="1390" y="1880" width="370" height="60" as="geometry" />
        </mxCell>
        <mxCell id="-arGailqpxFbJRoSAnPw-4" value="&lt;h3 data-end=&quot;274&quot; data-start=&quot;246&quot;&gt;&lt;span style=&quot;font-size: 14.04px;&quot;&gt;构造固定分类器映射到语义标签&lt;/span&gt;&lt;/h3&gt;&lt;h3 data-end=&quot;274&quot; data-start=&quot;246&quot;&gt;&lt;span style=&quot;font-size: 14.04px;&quot;&gt;构造分类器调用 get_fixclassifier 函数，利用上一步计算的归一化中心构造一个固定的线性分类器，其权重被直接设置为这些中心。&lt;/span&gt;&lt;/h3&gt;&lt;h3 data-end=&quot;274&quot; data-start=&quot;246&quot;&gt;&lt;span style=&quot;font-size: 14.04px;&quot;&gt;这个固定分类器不会更新，其作用是将模型提取到的点级特征映射到预定义的语义类别上。&lt;/span&gt;&lt;/h3&gt;&lt;h3 data-end=&quot;274&quot; data-start=&quot;246&quot;&gt;&lt;span style=&quot;font-size: 14.04px;&quot;&gt;分类过程在测试时，模型提取出点级特征后，同样对特征做归一化，并通过 F.linear 计算每个点与每个语义中心的相似度（内积），最后用 argmax 选出得分最高的类别作为预测标签。&lt;/span&gt;&lt;/h3&gt;" style="rounded=1;whiteSpace=wrap;html=1;" parent="1" vertex="1">
          <mxGeometry x="2130" y="2000" width="530" height="230" as="geometry" />
        </mxCell>
        <mxCell id="-arGailqpxFbJRoSAnPw-5" value="&lt;h3 data-end=&quot;274&quot; data-start=&quot;246&quot;&gt;&lt;span style=&quot;font-size: 14.04px;&quot;&gt;利用评估流程将预测标签对齐真实语义&lt;/span&gt;&lt;/h3&gt;&lt;h3 data-end=&quot;274&quot; data-start=&quot;246&quot;&gt;&lt;span style=&quot;font-size: 14.04px;&quot;&gt;混淆矩阵构造得到预测标签后，代码构造了一个混淆矩阵：每个元素表示真实标签 iii 被预测为 jjj 的样本数。&lt;/span&gt;&lt;/h3&gt;&lt;h3 data-end=&quot;274&quot; data-start=&quot;246&quot;&gt;&lt;span style=&quot;font-size: 14.04px;&quot;&gt;这里通过表达式 sem_num * all_labels + all_preds 将 (真实标签, 预测标签) 对映射成一维索引，再利用 np.bincount 统计。&lt;/span&gt;&lt;/h3&gt;&lt;h3 data-end=&quot;274&quot; data-start=&quot;246&quot;&gt;&lt;span style=&quot;font-size: 14.04px;&quot;&gt;Hungarian 算法匹配由于预测标签的编号是无序的（即模型输出的类别编号和数据集中真实语义编号不一定对应），因此使用匈牙利算法进行最佳匹配。&lt;/span&gt;&lt;/h3&gt;&lt;h3 data-end=&quot;274&quot; data-start=&quot;246&quot;&gt;&lt;span style=&quot;font-size: 14.04px;&quot;&gt;具体方法：先构造一个“代价矩阵”（histogram.max() - histogram），使得原来匹配得越好的对应边成本越低；然后用 linear_assignment 求解最优匹配。&lt;/span&gt;&lt;/h3&gt;&lt;h3 data-end=&quot;274&quot; data-start=&quot;246&quot;&gt;&lt;span style=&quot;font-size: 14.04px;&quot;&gt;匹配结果 mmm 表示最佳的预测类别和真实类别的对应关系，进而计算出整体准确率、各类别准确率以及 IoU 等指标。&lt;/span&gt;&lt;/h3&gt;" style="rounded=1;whiteSpace=wrap;html=1;" parent="1" vertex="1">
          <mxGeometry x="1850" y="2338" width="530" height="282" as="geometry" />
        </mxCell>
        <mxCell id="-arGailqpxFbJRoSAnPw-6" style="edgeStyle=orthogonalEdgeStyle;rounded=0;orthogonalLoop=1;jettySize=auto;html=1;entryX=0.537;entryY=0.009;entryDx=0;entryDy=0;entryPerimeter=0;" parent="1" source="-arGailqpxFbJRoSAnPw-4" target="-arGailqpxFbJRoSAnPw-5" edge="1">
          <mxGeometry relative="1" as="geometry" />
        </mxCell>
        <mxCell id="GaN4jN02Bce2NCk_VufV-1" value="&lt;div&gt;&lt;font style=&quot;font-size: 14px; color: rgb(255, 0, 0);&quot;&gt;关于指标&lt;/font&gt;&lt;/div&gt;&lt;font style=&quot;font-size: 14px;&quot;&gt;大概的过程是：构建一个方阵，i行j列代表的是：真实语义标签i被预测为id j的数量。然后用这个矩阵中最大的数减去每个元素作为代价矩阵，然后使用Hungarian进行匹配。&lt;/font&gt;&lt;div&gt;&lt;font size=&quot;3&quot;&gt;那其实也就是计算了预测与真实重叠的数量，只不过论文是用最大的直接减去各元素作为成本（其实就是看重叠数量最多了）。改进：可以改进为计算iou&amp;nbsp; 在上述计算&lt;span style=&quot;background-color: transparent; color: light-dark(rgb(0, 0, 0), rgb(255, 255, 255));&quot;&gt;预测与真实重叠的数量的基础上 除以（预测+真实-重叠）来作为成本，这样对于那种真实语义标签对应的两个数量一样的预测id有效。&lt;/span&gt;&lt;/font&gt;&lt;/div&gt;&lt;div&gt;&lt;span style=&quot;background-color: transparent; color: light-dark(rgb(0, 0, 0), rgb(255, 255, 255));&quot;&gt;&lt;font size=&quot;3&quot;&gt;对于如何计算每个点对对应的真实标签和预测标签：有一个真实标签数组，还有一个预测标签数组 且顺序是一一对应的&lt;/font&gt;&lt;/span&gt;&lt;/div&gt;" style="rounded=1;whiteSpace=wrap;html=1;fillColor=#f8cecc;strokeColor=#b85450;" parent="1" vertex="1">
          <mxGeometry x="1320" y="2430" width="460" height="230" as="geometry" />
        </mxCell>
        <mxCell id="Aaq_GdSLGYO0YYf0CYgu-1" value="&lt;div&gt;&lt;font style=&quot;font-size: 14px; color: rgb(255, 0, 0);&quot;&gt;关于BM问题&lt;/font&gt;&lt;/div&gt;&lt;font style=&quot;font-size: 14px;&quot;&gt;BM对于长距离失效的原因：因为在合并的过程中是按照2的n次方来合在一起的，第3次的时候就已经是前4帧和后4帧一起合并，那么这时候中间重叠的部分不足以满足那个合并的条件 就不会进行合并&lt;/font&gt;" style="rounded=1;whiteSpace=wrap;html=1;fillColor=#f8cecc;strokeColor=#b85450;" vertex="1" parent="1">
          <mxGeometry x="1310" y="2680" width="460" height="100" as="geometry" />
        </mxCell>
        <mxCell id="Aaq_GdSLGYO0YYf0CYgu-2" value="&lt;div&gt;&lt;font style=&quot;font-size: 14px; color: rgb(255, 0, 0);&quot;&gt;关于改进&lt;/font&gt;&lt;/div&gt;&lt;font style=&quot;font-size: 14px;&quot;&gt;①改进融合的顺序 最起码能好一点；&lt;/font&gt;&lt;div&gt;&lt;font style=&quot;font-size: 14px;&quot;&gt;②将出来的东西进行聚类 聚类之后作为先验信息进行BM融合；（不可以 聚类出来的效果很不好）&lt;/font&gt;&lt;/div&gt;&lt;div&gt;&lt;font style=&quot;font-size: 14px;&quot;&gt;③去除分组为-1的点&lt;/font&gt;&lt;/div&gt;" style="rounded=1;whiteSpace=wrap;html=1;fillColor=#f8cecc;strokeColor=#b85450;" vertex="1" parent="1">
          <mxGeometry x="1310" y="2830" width="460" height="100" as="geometry" />
        </mxCell>
      </root>
    </mxGraphModel>
  </diagram>
</mxfile>
